<svg xmlns="http://www.w3.org/2000/svg" width="83.072" height="68.203" viewBox="0 0 83.072 68.203">
  <defs>
    <style>
      .cls-1 {
        fill: #fff337;
      }
    </style>
  </defs>
  <g id="Quote" transform="translate(-3634.574 -2443.197)">
    <path id="Union_1" data-name="Union 1" class="cls-1" d="M0,68.2V40.252S-.837,22.911,20.209.685l3.968,3.13L19.9,0l4.376,3.893,8.976,7.08-.467.515.455.409-.457-.407C18.053,27.814,20.209,32.676,20.209,32.676H36.373V68.2Z" transform="translate(3681.273 2443.197)"/>
    <path id="Union_2" data-name="Union 2" class="cls-1" d="M0,68.2V40.252S-.837,22.911,20.209.685l3.968,3.13L19.9,0l4.376,3.893,8.976,7.08-.467.515.455.409-.457-.407C18.053,27.814,20.209,32.676,20.209,32.676H36.373V68.2Z" transform="translate(3634.574 2443.197)"/>
  </g>
</svg>
