<svg id="Adani" xmlns="http://www.w3.org/2000/svg" width="114.489" height="36.129" viewBox="0 0 114.489 36.129">
  <path id="Path_441" data-name="Path 441" d="M99.915,2.927a2.953,2.953,0,1,0,5.9,0,2.952,2.952,0,0,0-5.9,0Zm-58.3-.007v7.432A16.769,16.769,0,0,0,35.118,8.92c-6.389,0-10.055,3.811-10.6,9.96a56.2,56.2,0,0,0,0,7.039c.545,6.095,4.608,10.21,11.3,10.21a18.755,18.755,0,0,0,10.106-3.078,2.012,2.012,0,0,0,.943-1.983V2.921A2.626,2.626,0,0,0,44.239.245,2.659,2.659,0,0,0,41.61,2.921ZM29.766,25.272a48.019,48.019,0,0,1,0-5.8c.2-3.617,1.988-5.5,5.749-5.5a12.974,12.974,0,0,1,6.1,1.537V29.284a11.306,11.306,0,0,1-5.7,1.784c-3.812,0-5.844-1.983-6.147-5.8ZM75.648,11.64A2.088,2.088,0,0,0,74.6,13.671V33.148a2.7,2.7,0,0,0,2.637,2.682,2.628,2.628,0,0,0,2.62-2.682V15.363a12.482,12.482,0,0,1,5.9-1.389c3.078,0,5.758,1.685,5.758,5.65V33.148a2.684,2.684,0,0,0,2.619,2.682,2.6,2.6,0,0,0,2.628-2.682V19.377c0-6.694-3.666-10.457-10.85-10.457-5.2,0-8.827,1.64-10.262,2.721ZM53.256,10.4a2.606,2.606,0,0,0-1.738,2.436c0,1.535,1.435,2.675,3.622,1.978a16.551,16.551,0,0,1,5.395-1.086c3.864,0,5.507,1.433,5.507,4.806v1.63a24.955,24.955,0,0,0-6.3-.834c-6.933,0-10.055,3.916-10.055,8.223,0,4.856,3.363,8.576,10.159,8.576A19.412,19.412,0,0,0,70.158,33.35a1.978,1.978,0,0,0,.934-1.929V18.534c0-6.7-3.908-9.615-10.253-9.615a20.065,20.065,0,0,0-7.582,1.48Zm1.582,16.959c0-2.379,2.179-3.727,5.2-3.727a22.6,22.6,0,0,1,6,.845v5.5a9.476,9.476,0,0,1-5.758,1.538c-3.51,0-5.447-1.487-5.447-4.16h0ZM3.553,10.4a2.619,2.619,0,0,0-1.738,2.436c0,1.535,1.444,2.675,3.622,1.978a16.663,16.663,0,0,1,5.4-1.087c3.865,0,5.5,1.434,5.5,4.808v1.63a24.838,24.838,0,0,0-6.294-.834C3.354,19.33.207,22.982,0,27.109v.926c.216,4.618,3.579,8.093,10.141,8.093A19.386,19.386,0,0,0,20.455,33.35a1.983,1.983,0,0,0,.942-1.929V18.534c0-6.7-3.917-9.615-10.262-9.615A20.139,20.139,0,0,0,3.553,10.4ZM5.144,27.359c0-2.381,2.179-3.727,5.2-3.727a22.553,22.553,0,0,1,6,.845v5.5a9.417,9.417,0,0,1-5.749,1.538c-3.518,0-5.447-1.487-5.447-4.16Zm95.117-15.315V33.251a2.7,2.7,0,0,0,2.628,2.684,2.637,2.637,0,0,0,2.637-2.684V12.044a2.659,2.659,0,0,0-2.637-2.674,2.624,2.624,0,0,0-2.628,2.674h0Z"/>
  <path id="Path_442" data-name="Path 442" d="M473.7,6.48l.64,2.429.64-2.429a.353.353,0,0,1,.7.039l.441,2.493a.221.221,0,0,1-.156.27.194.194,0,0,1-.233-.179l-.406-2.508-.631,2.343c-.052.2-.173.332-.355.332s-.311-.116-.372-.332l-.631-2.329-.406,2.507a.187.187,0,0,1-.243.166.2.2,0,0,1-.138-.256l.424-2.506a.37.37,0,0,1,.363-.332.363.363,0,0,1,.363.293h0Zm-2.239,2.584a.2.2,0,1,1-.4,0V6.608h-.882a.186.186,0,0,1-.191-.192.2.2,0,0,1,.19-.193h2.136a.205.205,0,0,1,.207.193.2.2,0,0,1-.208.192h-.856Z" transform="translate(-361.634 -4.761)"/>
</svg>
