<svg id="Central" xmlns="http://www.w3.org/2000/svg" width="94.598" height="82.718" viewBox="0 0 94.598 82.718">
  <g id="Logos" transform="translate(0 0)">
    <path id="Path_569" data-name="Path 569" d="M86.627,60.381c-10.239-.59-19.735-6.4-25.193-18.342a24.168,24.168,0,0,1-1.92-6.552c-.07-.483-.492-1.247.492-1.363.792-.093,1.539-.111,1.7,1.019a20.476,20.476,0,0,0,1.312,4.8C67.312,50.409,75.03,56.531,86.26,57.971a27.946,27.946,0,1,0-22.79-38.55,27.016,27.016,0,0,0-1.83,6.454c-.116.787-.388,1.3-1.312,1.256-.78-.035-1.11-.274-.984-1.131a29.365,29.365,0,0,1,7.046-15.528A29.769,29.769,0,0,1,89.427,0,30.337,30.337,0,0,1,119.4,26.451a29.551,29.551,0,0,1-9.122,25.7C104.831,57.495,97.061,60.441,86.627,60.381Z" transform="translate(-45.546 0)"/>
    <path id="Path_570" data-name="Path 570" d="M139.9,61.642a20.788,20.788,0,0,1-13.3,19.577,21.1,21.1,0,1,1-12.967-40.047c.453-.111,1.145-.548,1.3.353.13.759.218,1.59-.843,1.857a18.3,18.3,0,0,0-4.913,2.034,18.7,18.7,0,0,0-7.2,24.842c3.483,6.519,9.148,10.088,16.549,10.2A18.9,18.9,0,0,0,136.6,67.922a18.651,18.651,0,0,0-6.069-20.96A19.426,19.426,0,0,0,123.1,43.31c-.448-.114-.952-.151-1.056-.736-.088-.492-.232-1.038.13-1.446s.875-.153,1.312-.058A21.174,21.174,0,0,1,139.9,61.642Z" transform="translate(-74.98 -31.406)"/>
    <path id="Path_571" data-name="Path 571" d="M147.927,99.86c-8.662.128-12.974-7.2-11.885-14.52.7-4.66,3.095-8.161,7.778-9.642,4.8-1.518,9.928-.7,13.487,3.562.847,1.01.829,1.161-.269,1.811-.8.464-1.609.929-2.4,1.409a.835.835,0,0,1-1.2-.193,6.546,6.546,0,0,0-7.5-1.795c-2.812,1.066-4.047,3.371-4.311,6.215-.337,3.627,1.655,7.026,4.6,7.917a6.494,6.494,0,0,0,7.012-1.8,1.379,1.379,0,0,1,2.076-.295c.7.464,1.46.873,2.21,1.275.678.362.71.734.267,1.368A11.629,11.629,0,0,1,147.927,99.86Z" transform="translate(-104.329 -57.581)"/>
    <path id="Path_572" data-name="Path 572" d="M308.894,284.567a1.262,1.262,0,0,1,1.57.945c1.709,4.43,3.464,8.841,5.2,13.259a2.576,2.576,0,0,1,.251.766c.026.5.731,1.1-.1,1.5a1.625,1.625,0,0,1-2.18-.843c-.385-.929-.827-1.839-1.117-2.786a1.72,1.72,0,0,0-2.09-1.33,11.38,11.38,0,0,1-2.09,0c-.425-.037-1.21.327-1.161-.478.042-.7.142-1.625,1.221-1.676a15.107,15.107,0,0,1,1.625,0c.85.049.991-.267.7-1.035-.9-2.382-1.95-4.7-2.74-7.132C307.659,284.72,307.912,284.444,308.894,284.567Z" transform="translate(-235.862 -218.472)"/>
    <path id="Path_573" data-name="Path 573" d="M106.844,283.515c.9-.218,1.491.351,2.011,1.175,2.939,4.674,6.243,9.1,9.359,13.652.325.478,1.149.91.65,1.639-.318.464-2.322.049-2.735-.513-.787-1.049-1.558-2.113-2.322-3.181-2.09-2.923-4.179-5.844-6.241-8.781-.664-.945-1.265-1.934-1.881-2.914-.174-.276-.564-.543-.325-.908.179-.276.569-.149.871-.167C106.391,283.508,106.547,283.515,106.844,283.515Z" transform="translate(-80.84 -217.655)"/>
    <path id="Path_574" data-name="Path 574" d="M232.456,291.989v6.835c0,.824-.079,1.407-1.161,1.4-1.012,0-1.24-.441-1.235-1.335q.035-7.009,0-14.021c0-.831.2-1.284,1.161-1.293,1.012-.012,1.247.446,1.235,1.34C232.435,287.275,232.456,289.632,232.456,291.989Z" transform="translate(-176.646 -217.74)"/>
    <path id="Path_575" data-name="Path 575" d="M245.506,283.629c3.236.042,5.01,1.674,5.124,4.713a5.319,5.319,0,0,1-4.994,5.143c-.583.035-1.3.209-1.354-.775-.042-.808.021-1.361,1.084-1.486a2.783,2.783,0,0,0,2.617-2.11c.4-1.693-.636-3.032-2.482-3.322-.511-.079-1.114.012-1.333-.678C243.856,284.114,244.3,283.615,245.506,283.629Z" transform="translate(-187.405 -217.778)"/>
    <path id="Path_576" data-name="Path 576" d="M.134,289.55c.6-2.853,2.937-6.768,6.981-6.965a10.826,10.826,0,0,1,4.228.49c.564.2,1.077.441.643,1.135-.3.476-.174,1.351-1.393.912-3.348-1.21-6.861.423-8.126,4.386a1.3,1.3,0,0,1-1.625,1.022C.26,290.481.034,290.174.134,289.55Z" transform="translate(-0.085 -216.959)"/>
    <path id="Path_577" data-name="Path 577" d="M8.176,330.523a7.973,7.973,0,0,1-8.049-6.375c-.109-.511-.371-1.161.446-1.3.7-.118,1.416-.262,1.76.768,1.3,3.891,3.824,5.287,7.894,4.495.488-.093,1.008-.436,1.435.232.606.961.529,1.321-.56,1.672A7.889,7.889,0,0,1,8.176,330.523Z" transform="translate(0.002 -247.828)"/>
    <path id="Path_578" data-name="Path 578" d="M192.945,304.993c0-1.857.026-3.715-.014-5.561-.019-.8.332-1.008,1.047-.957.655.044,1.37-.093,1.368.929,0,3.747-.014,7.495,0,11.239,0,.977-.6.982-1.312,1-.787.021-1.117-.288-1.105-1.087C192.969,308.7,192.945,306.848,192.945,304.993Z" transform="translate(-148.136 -229.173)"/>
    <path id="Path_579" data-name="Path 579" d="M283.677,309.768c-1.251,0-1.444-.209-1.035-1.212,1.655-4.077,3.346-8.14,5.029-12.205.1-.232.135-.58.49-.541.253.028.311.311.411.518a3.576,3.576,0,0,1,.158,3.2c-1.328,3.044-2.535,6.139-3.77,9.22C284.687,309.429,284.341,309.919,283.677,309.768Z" transform="translate(-216.871 -227.129)"/>
    <path id="Path_580" data-name="Path 580" d="M58.148,305.047c0-1.813.023-3.629,0-5.444-.016-.866.367-1.128,1.191-1.133s1.177.325,1.175,1.161q-.028,5.447,0,10.891c0,.852-.365,1.135-1.2,1.135s-1.182-.32-1.161-1.161C58.165,308.678,58.146,306.863,58.148,305.047Z" transform="translate(-44.647 -229.173)"/>
    <path id="Path_581" data-name="Path 581" d="M105.255,296.37c.9,1.344,2.227,2.322,2.122,4.256-.146,2.733-.056,5.479-.026,8.219,0,.864-.153,1.381-1.191,1.379-.973,0-1.261-.39-1.251-1.319.033-3.819,0-7.638.019-11.46C104.93,297.12,104.809,296.749,105.255,296.37Z" transform="translate(-80.552 -227.561)"/>
    <path id="Path_582" data-name="Path 582" d="M354.265,290.465c0,1.89-.019,3.782,0,5.672,0,.773-.158,1.247-1.068,1.251-.868,0-1.142-.369-1.138-1.191.023-3.78.016-7.562,0-11.342,0-.755.142-1.247,1.073-1.256.982,0,1.14.5,1.128,1.312C354.245,286.762,354.263,288.615,354.265,290.465Z" transform="translate(-270.321 -217.756)"/>
    <path id="Path_583" data-name="Path 583" d="M157.977,297.86c-1.3-1.377-2.247-2.54-2.157-4.383.142-2.809.037-5.628.037-8.444,0-.673-.053-1.335.964-1.333.929,0,1.282.351,1.272,1.307-.039,3.933-.016,7.866-.021,11.8C158.072,297.068,158.028,297.333,157.977,297.86Z" transform="translate(-119.638 -217.833)"/>
    <path id="Path_584" data-name="Path 584" d="M177.336,283.842h4.982c.748,0,1.135.232,1.138,1.068s-.42,1.054-1.161,1.052q-5.043-.016-10.083,0c-.8,0-1.217-.246-1.2-1.131s.529-.994,1.219-.991C173.937,283.847,175.636,283.842,177.336,283.842Z" transform="translate(-131.305 -217.94)"/>
    <path id="Path_585" data-name="Path 585" d="M356.86,348.146c-1.233,0-2.468-.019-3.7,0-.815.019-1.186-.279-1.179-1.147,0-.81.232-1.219,1.117-1.21q3.817.039,7.634,0c.873,0,1.117.4,1.126,1.207,0,.861-.358,1.161-1.179,1.161C359.393,348.125,358.121,348.16,356.86,348.146Z" transform="translate(-270.259 -265.507)"/>
    <path id="Path_586" data-name="Path 586" d="M62.919,283.678c1.2,0,2.391.019,3.585,0,.72-.016,1.077.258,1.066,1.008,0,.662-.169,1.142-.954,1.142H58.87c-.729,0-.885-.443-.88-1.068s.144-1.068.882-1.063h4.047Z" transform="translate(-44.526 -217.815)"/>
    <path id="Path_587" data-name="Path 587" d="M380.926,266.247c-.156-.014-.388.042-.436-.218-.044-.232.13-.365.295-.448,1.142-.578,1-1.323.416-2.264a15.777,15.777,0,0,1-.836-2.025c-.258-.585.058-.68.518-.666a2.722,2.722,0,0,1,1.876,1.031c.666.7,1.33,1.019,2.213.371a1.182,1.182,0,0,1,1-.186.708.708,0,0,1,.6.478c.077.288-.153.406-.348.527a5.948,5.948,0,0,0-1.326,1.433A6.045,6.045,0,0,1,380.926,266.247Z" transform="translate(-291.983 -200.115)"/>
    <path id="Path_588" data-name="Path 588" d="M255.581,335.229a1.6,1.6,0,0,1-1.841-.873c-.741-1.268-1.588-2.47-2.35-3.715-.209-.344-.8-.847-.232-1.161.62-.348,1.567-.815,2.127-.074a36.123,36.123,0,0,1,3.295,5.038C257.207,335.638,255.862,335.013,255.581,335.229Z" transform="translate(-192.663 -252.624)"/>
    <path id="Path_589" data-name="Path 589" d="M75.294,346.441c.7,0,1.393.026,2.09,0,.632-.03.929.186.9.859-.03.618-.03,1.179-.887,1.161-1.467-.016-2.937-.012-4.411,0-.7,0-.829-.42-.831-.989s.132-1,.822-1h2.322Z" transform="translate(-55.398 -266.005)"/>
    <path id="Path_590" data-name="Path 590" d="M74.98,316.766c-.615,0-1.233-.016-1.857,0-.65.021-1.005-.214-1.026-.929-.023-.757.327-1.038,1.042-1.029,1.193,0,2.387.019,3.58,0,.815-.016,1.049.385,1.047,1.147,0,.813-.464.831-1.061.813s-1.161,0-1.734,0Z" transform="translate(-55.356 -241.718)"/>
    <path id="Path_591" data-name="Path 591" d="M81.31,107.507A1.309,1.309,0,0,1,80,108.856a1.426,1.426,0,0,1-1.532-1.393,1.423,1.423,0,1,1,2.844.044Z" transform="translate(-60.242 -81.397)"/>
    <path id="Path_592" data-name="Path 592" d="M283.41,121.516a1.323,1.323,0,0,1,1.361-1.356,1.437,1.437,0,0,1,1.539,1.393,1.523,1.523,0,0,1-1.43,1.509A1.6,1.6,0,0,1,283.41,121.516Z" transform="translate(-217.61 -92.262)"/>
    <path id="Path_593" data-name="Path 593" d="M239.486,105.879c-.861-.077-1.393-.464-1.442-1.351A1.412,1.412,0,0,1,239.423,103a1.44,1.44,0,0,1,.063,2.879Z" transform="translate(-182.773 -79.086)"/>
    <path id="Path_594" data-name="Path 594" d="M130.563,169.813c-.929-.1-1.451-.541-1.426-1.419a1.3,1.3,0,0,1,1.409-1.374,1.276,1.276,0,0,1,1.363,1.393A1.371,1.371,0,0,1,130.563,169.813Z" transform="translate(-99.154 -128.243)"/>
    <path id="Path_595" data-name="Path 595" d="M275.917,183.75a1.388,1.388,0,0,1,1.326,1.463,1.342,1.342,0,0,1-1.5,1.393,1.319,1.319,0,0,1-1.291-1.491A1.379,1.379,0,0,1,275.917,183.75Z" transform="translate(-210.727 -141.088)"/>
  </g>
</svg>
