<svg id="Eduonix" xmlns="http://www.w3.org/2000/svg" width="168.096" height="40.714" viewBox="0 0 168.096 40.714">
  <g id="Layer_1" data-name="Layer 1" transform="translate(0 0)">
    <path id="Path_457" data-name="Path 457" d="M20.266,0A20.366,20.366,0,0,0,0,19.246a26.9,26.9,0,0,0,7.089,1.31,13.267,13.267,0,0,1,25.485-5.349h0A32.253,32.253,0,0,1,14.247,25.365a7.518,7.518,0,0,0,.5.62,8,8,0,0,0,11.248.01l3.789,3.759a13.227,13.227,0,0,1-21.446-3.8,32.343,32.343,0,0,1-7.818-1A20.356,20.356,0,1,0,20.266,0Z" transform="translate(0 0)"/>
    <path id="Path_458" data-name="Path 458" d="M14.72,14.77a7.848,7.848,0,0,0-2.29,5.519A26.855,26.855,0,0,0,25.587,14.46,7.918,7.918,0,0,0,14.72,14.77Z" transform="translate(-0.003 -0.002)"/>
    <path id="Path_459" data-name="Path 459" d="M83.327,9.65v6.679l-.2-.19a7.359,7.359,0,0,0-5.189-2,7.5,7.5,0,0,0-5.769,2.6,8.588,8.588,0,0,0-2.25,6,8.4,8.4,0,0,0,2.26,5.919A7.518,7.518,0,0,0,78,31.226a7.339,7.339,0,0,0,5.179-2l.2-.19v1.69h3.649L87,9.64Zm-1.41,16.507a4.689,4.689,0,0,1-3.439,1.44,4.929,4.929,0,1,1,3.439-1.44Z" transform="translate(-0.014 -0.002)"/>
    <path id="Path_460" data-name="Path 460" d="M101.138,14.58v9.528a3.359,3.359,0,0,1-5.779,2.41,3.149,3.149,0,0,1-1-2.39V14.6H90.69v9.528A7,7,0,0,0,92.56,29a6,6,0,0,0,4.719,2.16h0A6.059,6.059,0,0,0,101,30l.2-.14v.86h3.649V14.62Z" transform="translate(-0.018 -0.003)"/>
    <path id="Path_461" data-name="Path 461" d="M116.648,14h0a8.548,8.548,0,1,0,8.6,8.5A8.538,8.538,0,0,0,116.648,14Zm3.479,12a4.759,4.759,0,0,1-3.439,1.44,4.849,4.849,0,0,1-3.479-1.42,4.909,4.909,0,0,1,3.449-8.388h0a4.7,4.7,0,0,1,3.449,1.42,4.779,4.779,0,0,1,1.47,3.469,4.829,4.829,0,0,1-1.45,3.529Z" transform="translate(-0.022 -0.003)"/>
    <path id="Path_462" data-name="Path 462" d="M140.808,16.13A6.139,6.139,0,0,0,136.058,14a6,6,0,0,0-3.709,1.24l-.2.15v-.86H128.53l.05,16.087H132.2V21.069a3.4,3.4,0,0,1,5.8-2.45A3.2,3.2,0,0,1,139,21v9.548h3.659V21a7.669,7.669,0,0,0-.46-2.619A6.808,6.808,0,0,0,140.808,16.13Z" transform="translate(-0.026 -0.003)"/>
    <rect id="Rectangle_48" data-name="Rectangle 48" width="3.629" height="16.097" transform="translate(146.283 14.453) rotate(-0.17)"/>
    <path id="Path_463" data-name="Path 463" d="M149.769,9.61a2.34,2.34,0,0,0-3.3,0,2.2,2.2,0,0,0-.67,1.65,2.229,2.229,0,0,0,.68,1.65,2.28,2.28,0,0,0,1.65.67,2.34,2.34,0,0,0,1.64-4Z" transform="translate(-0.029 -0.002)"/>
    <path id="Path_464" data-name="Path 464" d="M162.408,22.438l.05-.07,5.619-7.988-4.539.01-3.379,4.859-3.439-4.839-4.479.02,5.659,8.028-5.609,8.058,4.479-.01,3.409-4.889,3.409,4.869,4.539-.02Z" transform="translate(-0.031 -0.003)"/>
    <path id="Path_465" data-name="Path 465" d="M68.526,19.439a8.738,8.738,0,0,0-1.85-2.729,8.508,8.508,0,0,0-14.507,6.169,18,18,0,0,1-3.8-.63v.56a11.868,11.868,0,0,0,.41,3.049,20.326,20.326,0,0,0,4.209.45,8.258,8.258,0,0,0,1.72,2.479,8.518,8.518,0,0,0,12,0l-2.43-2.41a5.1,5.1,0,0,1-7.2,0,3.888,3.888,0,0,1-.32-.39,20.706,20.706,0,0,0,11.748-6.519h0ZM55.6,22.708A5.059,5.059,0,0,1,64,19a17.246,17.246,0,0,1-8.4,3.709Z" transform="translate(-0.01 -0.003)"/>
  </g>
</svg>
