<svg id="Future_Group" data-name="Future Group" xmlns="http://www.w3.org/2000/svg" width="292.358" height="66.101" viewBox="0 0 292.358 66.101">
  <g id="Layer_1" data-name="Layer 1" transform="translate(0 0)">
    <g id="Page-1" transform="translate(0 0)">
      <g id="Artboard">
        <g id="future-group_1_" data-name="future-group(1)">
          <g id="Group">
            <path id="Shape" d="M995.56.389a5.285,5.285,0,0,0,1.463,1.839,4.092,4.092,0,0,1,1.463,2.9,5.793,5.793,0,0,0,1.065,2.9,3.735,3.735,0,0,1,.919,2.66c-.146,1.595,1.161,4.594,2.175,4.982.388.144.678.919.678,1.885,0,1.114.678,2.66,2.031,4.74,5.513,8.464,4.877,11.656-3.384,17.025-5.121,3.338-5.03,3.723.627,2.758a53.99,53.99,0,0,0,20.507-7.837,49.052,49.052,0,0,0,11.27-11.995c3.338-5.077,5.321-7.013,8.415-8.174l2.37-.917-1.838-1.743c-1.644-1.5-2.175-1.741-4.3-1.741-2.031,0-3.143.388-7.071,2.66-4.545,2.612-5.608,2.95-8.561,2.709-2.273-.193-3.867-1.258-8.849-5.95-5.482-5.077-8.093-6.964-11.334-8.222C1000.832-.006,995.56-.335,995.56.389Z" transform="translate(-752.802 0.008)"/>
            <path id="Shape-2" data-name="Shape" d="M11.721,95.883c-3.482.824-5.467,3.436-6.24,8.127l-.339,2.031H2.869c-1.982,0-2.37.144-2.612,1.063-.532,2.136-.388,2.321,1.939,2.321,2.129,0,2.226.049,1.936,1.219-.732,2.9-3.677,17.266-3.677,17.9,0,.532.58.732,2.129.732H4.708l.732-3.287c.388-1.79,1.356-6.24,2.08-9.915l1.4-6.628h2.751c2.465,0,2.8-.1,2.8-.919a6.247,6.247,0,0,1,.29-1.692c.244-.629-.144-.773-2.416-.773-2.709,0-2.709,0-2.419-1.356,1.014-4.545,1.5-5.077,5.077-5.028,1.646.046,1.936-.146,2.178-1.258.144-.732.339-1.548.434-1.839.1-.339-.627-.678-1.595-.871A6.993,6.993,0,0,0,11.721,95.883Z" transform="translate(-0.003 -72.175)"/>
            <path id="Shape-3" data-name="Shape" d="M168.894,114.172c-1.839.675-2.031.917-2.563,3.143-.58,2.321-.629,2.37-2.419,2.37-2.031,0-2.129.1-2.612,2.031-.29,1.3-.244,1.353,1.644,1.353,1.258,0,1.936.244,1.936.629,0,.339-.629,3.628-1.451,7.352-2.37,11.026-2.129,11.848,3.626,11.848,3.241,0,3.531-.1,3.821-1.112.532-2.031.339-2.66-.675-2.416-1.79.488-3.387-.244-3.387-1.548,0-1.017,1.463-8.512,2.66-13.687.244-.919.58-1.066,2.419-1.066,1.4,0,2.175-.193,2.175-.629a11.358,11.358,0,0,1,.29-1.692c.29-.975.146-1.063-1.741-1.063h-2.08l.339-2.08c.2-1.112.436-2.516.629-3.143C171.8,113.253,171.652,113.2,168.894,114.172Z" transform="translate(-121.87 -85.819)"/>
            <path id="Shape-4" data-name="Shape" d="M391.978,137.978c-4.3,2.224-6.964,6.384-7.932,12.477-1.161,7.3,1.548,10.641,8.659,10.641,3.916,0,5.852-.678,8.415-2.9,1.548-1.356,3.192-3.726,3.192-4.6a5.643,5.643,0,0,0-2.321-.244c-2.031,0-2.419.146-2.9,1.219-1.219,2.563-5.562,3.919-8.464,2.612-1.548-.675-2.275-2.37-2.275-5.03V149.98h16.93l.336-1.356a22.045,22.045,0,0,0,.339-4.206c0-5.513-2.273-7.5-8.513-7.5C394.831,136.961,393.38,137.2,391.978,137.978Zm6.828,2.321c1.4,0,2.612,1.885,2.612,4.111v2.175h-5.8c-3.726,0-5.806-.193-5.806-.488,0-.87,1.307-3.094,2.324-4.014,1.207-1.112,4.448-2.321,5.318-2.031a4.488,4.488,0,0,0,1.348.246Z" transform="translate(-290.204 -103.531)"/>
            <path id="Shape-5" data-name="Shape" d="M55.846,148c-1.741,8.608-1.79,9.142-1.112,10.834.919,2.175,2.9,3.287,6,3.287a6.667,6.667,0,0,0,6.433-3.916c1.014-1.936,1.063-3.387.046-1.5-.675,1.307-3.577,2.224-5.657,1.79-2.807-.488-2.9-1.6-.919-10.729.919-4.4,1.692-8.176,1.692-8.417s-1.063-.434-2.321-.434H57.684Z" transform="translate(-41.082 -105.036)"/>
            <path id="Shape-6" data-name="Shape" d="M112.909,149.865c-1.114,6.1-2.034,11.319-1.985,11.656,0,.436.678.58,2.275.488l2.273-.146L117.5,150.98c1.161-6,2.08-11.17,2.08-11.509.049-.388-.732-.58-2.275-.58h-2.321Z" transform="translate(-83.876 -105.021)"/>
            <path id="Shape-7" data-name="Shape" d="M220.044,139.121c0,.1-.773,3.87-1.741,8.32-1.934,9.09-1.934,11.217,0,13.155,1.017.975,1.79,1.256,4.353,1.4,3,.193,3.143.144,5.03-1.548a10.663,10.663,0,0,0,2.468-3.289l.532-1.546-1.4,1.353c-1.936,1.887-5.321,2.273-6.771.822a3.6,3.6,0,0,1-1.017-1.982c0-.731,2.031-11.026,3.143-15.864.244-1.014.1-1.063-2.175-1.063A6.1,6.1,0,0,0,220.044,139.121Z" transform="translate(-163.976 -105.013)"/>
            <path id="Shape-8" data-name="Shape" d="M276.433,139.1c0,.29-3.821,20.507-4.111,21.909-.244,1.017-.1,1.112,2.126,1.112h2.419l.488-2.563c.29-1.353,1.161-6.1,1.985-10.485s1.643-8.464,1.79-9.093c.244-1.014.1-1.063-2.226-1.063A8.267,8.267,0,0,0,276.433,139.1Z" transform="translate(-205.854 -105.042)"/>
            <path id="Shape-9" data-name="Shape" d="M321.769,149.424c-1.161,5.755-2.224,10.973-2.37,11.558-.193,1.017-.046,1.112,2.129,1.112h2.36l1.643-8.125c.919-4.45,1.839-8.415,2.034-8.851.58-1.112,3-1.885,5.8-1.885,2.563,0,2.612,0,3.046-2.563l.339-1.79h-1.741a7.49,7.49,0,0,0-5.8,2.95l-1.307,1.595.339-2.273.339-2.273h-4.691Z" transform="translate(-241.471 -105.013)"/>
            <path id="Shape-10" data-name="Shape" d="M515.611,140.093c-5.079,2.853-8.271,13.106-5.66,18.186,2.031,4.014,8.366,4.594,12.334,1.112.732-.678.822-.678.822.049,0,1.595-1.982,6-3.192,7.157a4.437,4.437,0,0,1-3.482,1.161c-3.338,0-3.967-.385-3.967-2.416v-1.7H507.63v1.707c0,4.545,4.014,6.723,10.156,5.562,3.338-.629,6-2.37,7.208-4.74.675-1.353,5.852-24.667,5.852-26.408a4.44,4.44,0,0,0-2.129-.29H526.54l-.288,2.268a56.791,56.791,0,0,1-2.755,11.851c-1.307,3.046-2.807,4.3-5.365,4.594-1.887.244-2.224.1-3.385-1.3-2.468-2.9-1.548-8.9,1.885-12.436,3-3.192,5.708-2.8,7.835,1.063.488.873.534.775.58-.627,0-2.226-1.256-4.691-2.707-5.364A7.953,7.953,0,0,0,515.611,140.093Z" transform="translate(-383.849 -105.114)"/>
            <path id="Shape-11" data-name="Shape" d="M618.935,139.46c-.244.773-4.145,21.812-4.145,22.343,0,.2.917.29,2.08.2l2.031-.146,1.787-8.947c.975-4.933,1.936-10.11,2.129-11.512l.29-2.514h-1.982C619.9,138.88,619.033,139.121,618.935,139.46Z" transform="translate(-464.879 -105.013)"/>
            <path id="Shape-12" data-name="Shape" d="M651.942,139.886c-1.707,1.066-3.482,3.58-3.482,4.982,0,.824.046.824.822.1a6.775,6.775,0,0,1,4.933-1.692c1.692,0,1.885-.146,2.175-1.5a19.226,19.226,0,0,0,.29-2.178C656.68,138.581,653.778,138.774,651.942,139.886Z" transform="translate(-490.339 -105.054)"/>
            <path id="Shape-13" data-name="Shape" d="M691.339,139.609a15.058,15.058,0,0,0-8.754,7.981c-1.3,3-1.463,8.946-.29,11.27,2.419,4.594,8.078,5.8,13.2,2.8,4.353-2.563,7.013-7.352,7.352-13.058.146-3.484.049-4.065-.975-5.562a6.508,6.508,0,0,0-6.189-2.66l-1.707.193,1.936-.678,1.934-.629h-2.641A19.037,19.037,0,0,0,691.339,139.609Zm1.161,2.226c-.244.58.1.732,1.5.732a4.162,4.162,0,0,1,3.241,1.463c1.356,1.4,1.463,1.692,1.258,4.5-.532,8.366-7.932,14.074-11.607,8.9-2.468-3.436-.919-9.963,3.336-14.27C692.405,140.965,692.937,140.667,692.5,141.835Z" transform="translate(-515.326 -105.308)"/>
            <path id="Shape-14" data-name="Shape" d="M786.473,139.913c-1.353,5.708-3.143,14.994-3.143,16.445,0,2.37.775,3.919,2.419,4.877a8.822,8.822,0,0,0,7.642-.144c1.644-1.017,3.482-3.58,3.482-4.838-.049-.58-.146-.532-.532.146-1.219,2.031-5.121,2.9-7.11,1.5-1.4-.975-1.353-2.37.388-10.592,1.885-8.851,1.934-8.464-.732-8.464C787.054,138.85,786.717,138.993,786.473,139.913Z" transform="translate(-592.322 -104.983)"/>
            <path id="Shape-15" data-name="Shape" d="M843.03,139.7c-.29,1.063-4.16,21.329-4.16,21.958,0,.244,1.063.434,2.321.434h2.321l2.08-11.026c1.112-6.045,2.031-11.268,1.982-11.607,0-.388-.773-.58-2.129-.58C843.8,138.88,843.223,139.073,843.03,139.7Z" transform="translate(-634.319 -105.014)"/>
            <path id="Shape-16" data-name="Shape" d="M894.468,139.969c-1.741,1.161-3.821,3.919-3.821,5.079,0,.434.732.046,1.936-1.066,4.594-4.16,9-.629,7.688,6.191-1.3,6.869-6.191,11.217-9.817,8.8-2.273-1.451-2.468-3.628-1.066-10.931.678-3.577,1.356-7.013,1.5-7.639.244-.975.1-1.066-1.836-1.066h-2.08l-1.79,9.529c-.975,5.272-2.321,12.236-2.95,15.477l-1.112,5.947h4.062l.87-4.828a27.192,27.192,0,0,1,1.112-4.838,11.224,11.224,0,0,1,1.934,1.066,8.484,8.484,0,0,0,8.8-.29c4.16-2.765,6.771-8.181,6.771-14.131,0-4.014-.675-5.8-2.707-7.4C900.176,138.469,896.646,138.518,894.468,139.969Z" transform="translate(-666.267 -104.991)"/>
          </g>
        </g>
      </g>
    </g>
  </g>
</svg>
