<svg id="Koryo" xmlns="http://www.w3.org/2000/svg" width="161.293" height="45.001" viewBox="0 0 161.293 45.001">
  <g id="Logos" transform="translate(0 0)">
    <path id="Path_490" data-name="Path 490" d="M52.249,58.42a22.613,22.613,0,0,1-8.278,8.651,24.18,24.18,0,0,1-15.787,3.3,21.714,21.714,0,0,1-10.743-4.23q-.828-.632-1.7-1.2c-3.8-2.477-3.544-6.092-2.828-9.859A18.652,18.652,0,0,1,15.945,47.7a19.446,19.446,0,0,1,8.6-6.879c.414.481.034.694-.116.94-3.238,5.469-2.8,10.1,1.473,14.656a16.7,16.7,0,0,0,8.46,4.558,24.2,24.2,0,0,0,5.651.586,23.629,23.629,0,0,0,10.445-2.533c.418-.2.836-.407,1.257-.6a2.611,2.611,0,0,1,.533-.011Z" transform="translate(-7.827 -25.587)"/>
    <path id="Path_491" data-name="Path 491" d="M59.044-.009a22.091,22.091,0,0,1,9.725,2.014,22.647,22.647,0,0,1,13.7,21.144A23.3,23.3,0,0,1,81.25,29.4a2.858,2.858,0,0,1-1.071,1.418,20.89,20.89,0,0,1-22.871,1.559c-.373-.22-.88-.343-1.119-1.044,1.335-.25,2.671-.153,3.965-.373a12.034,12.034,0,0,0,9.438-9.945c1.119-8.6-2.4-15-9.326-19.838C59.868.9,59.32.774,59.044-.009Z" transform="translate(-35.229 0.015)"/>
    <path id="Path_492" data-name="Path 492" d="M3.009,33.634A19.4,19.4,0,0,1,.025,24.286,22.788,22.788,0,0,1,20.2.453a2.2,2.2,0,0,1,1.335.231c7,3.577,10.732,9.326,11.5,17.074.067.686.09,1.376.127,2.067,0,.037-.048.075-.086.123-.436.067-.522-.332-.671-.574-3.991-6.625-11.68-7.491-17.861-4.163C8.071,18.7,4.173,24.059,3.356,31.46,3.278,32.053,3.162,32.642,3.009,33.634Z" transform="translate(0.002 -0.265)"/>
    <path id="Path_493" data-name="Path 493" d="M271.7,41.823l6.047,5.372c1.425,1.261,2.854,2.518,4.268,3.79.228.2.627.373.489.746s-.545.272-.854.3c-2.272.205-4.271,0-6.084-1.828-2.5-2.518-5.353-4.693-8.319-7.237,0,2.537.022,4.779,0,7.02,0,.649.354,1.544-.459,1.865a4.417,4.417,0,0,1-2.876,0c-.5-.145-.44-.66-.44-1.071V28.547c0-.824.351-1.168,1.171-1.16,3.257.034,6.517-.082,9.762.086a7.226,7.226,0,0,1,6.759,6.916c.123,3.383-2.8,6.625-6.416,7.088C273.848,41.633,272.99,41.7,271.7,41.823ZM271.215,30.9H268.29c-.671,0-1.048.261-1.044.981v5c0,.649.351.906.962.9,2,0,4,.078,5.987-.067a3.289,3.289,0,0,0,2.984-3.559,3.331,3.331,0,0,0-3.193-3.227C273.076,30.852,272.144,30.9,271.215,30.9Z" transform="translate(-165.183 -17.16)"/>
    <path id="Path_494" data-name="Path 494" d="M375.959,27.49c7.256,0,12.929,5.439,12.922,12.362s-5.73,12.31-12.985,12.31S362.974,46.7,363,39.793,368.7,27.483,375.959,27.49ZM375.9,48.466c5.152,0,9.169-3.764,9.177-8.621a9.164,9.164,0,0,0-18.308-.056C366.745,44.642,370.763,48.458,375.9,48.466Z" transform="translate(-227.588 -17.23)"/>
    <path id="Path_495" data-name="Path 495" d="M199.642,27.49c7.162,0,12.948,5.543,12.933,12.366s-5.857,12.332-13.135,12.31c-7.065-.026-12.877-5.562-12.911-12.31C186.5,33.033,192.386,27.479,199.642,27.49Zm0,20.976a8.852,8.852,0,0,0,9.113-8.617,9.07,9.07,0,0,0-9.188-8.785,8.963,8.963,0,0,0-9.117,8.789c.03,4.924,3.991,8.639,9.206,8.613Z" transform="translate(-116.947 -17.23)"/>
    <path id="Path_496" data-name="Path 496" d="M145.047,35.959c1.011-.9,1.735-1.526,2.436-2.179,2.2-2.059,4.4-4.133,6.606-6.2.727-.679,4.353-1.224,5.185-.727.746.448.056.787-.209,1.041-1.94,1.865-3.906,3.73-5.868,5.562-1.25,1.183-2.455,2.414-3.768,3.518-1.022.862-1.059,1.459-.034,2.4,3.764,3.454,7.461,7,11.161,10.508.269.254.541.507.795.78.179.19.511.373.3.679a.925.925,0,0,1-.612.228c-2.346.2-4.435.119-6.282-1.936-2.563-2.857-5.547-5.346-8.363-7.979-.287-.272-.571-.783-1.015-.6-.526.216-.321.813-.325,1.25,0,2.611-.071,5.2,0,7.789.056,1.619-.955,1.492-2.011,1.492s-1.865-.063-1.835-1.529q.09-10.781,0-21.561c0-1.57.821-1.544,1.932-1.559s1.985.063,1.921,1.589C144.973,30.893,145.047,33.225,145.047,35.959Z" transform="translate(-88.532 -16.713)"/>
    <path id="Path_497" data-name="Path 497" d="M319.353,45.485c.936-4.044-.765-7.132-3.383-10.05-2.041-2.272-3.786-4.816-5.644-7.252-.239-.31-.709-.616-.463-1.063s.746-.239,1.149-.317a4.341,4.341,0,0,1,5.047,2.376c1.261,2.152,2.913,4.074,4.342,6.136.619.9,1,1.119,1.731.041,1.541-2.272,3.3-4.383,4.756-6.688a3.316,3.316,0,0,1,3.932-1.761c.608.142,1.515-.239,1.772.422s-.541,1.119-.921,1.6q-3.76,4.917-7.58,9.807a3.492,3.492,0,0,0-.791,2.29q.037,4.447,0,8.9c0,1.589-.157,1.63-2.119,1.694-1.257.037-1.925-.272-1.832-1.69C319.432,48.439,319.353,46.966,319.353,45.485Z" transform="translate(-194.23 -16.726)"/>
  </g>
</svg>
