<svg xmlns="http://www.w3.org/2000/svg" width="161.807" height="66.593" viewBox="0 0 161.807 66.593">
  <defs>
    <style>
      .cls-1 {
        stroke: #000;
        stroke-miterlimit: 2.61;
        stroke-width: 0.3px;
      }
    </style>
  </defs>
  <g id="Lee_Cooper" data-name="Lee Cooper" transform="translate(0.15 0.132)">
    <g id="Logos" transform="translate(0 0)">
      <path id="Path_562" data-name="Path 562" class="cls-1" d="M262.584,122.27c-3.013,0-6.114,3.883-6.114,10.871,0,6.3,3.1,10.873,6.114,10.959,2.582.086,5.163-3.624,5.077-7.507h-3.185c-.172,1.726-.947,2.243-1.894,2.243-1.894,0-1.978-2.07-1.978-3.71h7.313c.086-.517-.086-2.072-.086-2.589C267.663,126.413,265.343,122.27,262.584,122.27Zm-1.98,9.061h0c0-1.726.6-3.108,1.722-3.108,1.2,0,1.722,1.726,1.808,3.108Z" transform="translate(-209.607 -99.942)"/>
      <path id="Path_563" data-name="Path 563" class="cls-1" d="M425.556,117.075c-3.7,0-6.11,5.522-6.2,11.391h0c-.172,6.3,2.755,11.3,6.033,11.391,3.615.084,6.284-4.92,6.284-11.133C431.582,122.511,429,116.988,425.556,117.075Zm.258,16.74c-1.117-.088-1.894-1.382-2.152-5.092.172-3.192.859-4.83,2.152-4.83h0c1.121,0,1.9,2.157,2.068,4.83C427.622,131.656,426.934,133.816,425.814,133.816Z" transform="translate(-342.707 -95.697)"/>
      <path id="Path_564" data-name="Path 564" class="cls-1" d="M195.732,122.27c-3.013,0-6.112,3.883-6.112,10.871,0,6.3,3.1,10.873,6.112,10.959,2.582.086,5.163-3.624,5.079-7.507h-3.187c-.086,1.726-.947,2.243-1.978,2.243-1.808,0-1.894-2.07-1.894-3.71h7.313v-2.589C200.811,126.413,198.486,122.27,195.732,122.27Zm-1.98,9.061c0-1.726.6-3.108,1.72-3.108,1.2,0,1.722,1.726,1.808,3.108Z" transform="translate(-154.979 -99.942)"/>
      <path id="Path_565" data-name="Path 565" class="cls-1" d="M498.153,117.075c-3.786,0-6.2,5.522-6.284,11.391h0c-.172,6.3,2.841,11.3,6.2,11.389,3.616.086,6.284-4.918,6.2-11.133C504.265,122.511,501.683,116.988,498.153,117.075Zm.258,16.74c-1.117-.088-1.892-1.382-2.15-5.092.172-3.192.857-4.83,2.15-4.83,1.2,0,1.9,2.157,1.982,4.83C500.221,131.656,499.617,133.816,498.41,133.816Z" transform="translate(-401.961 -95.697)"/>
      <path id="Path_566" data-name="Path 566" class="cls-1" d="M645.94,122.27c-3.108,0-6.114,3.883-6.2,10.871,0,6.3,3.185,10.873,6.2,10.959,2.582.086,5.077-3.624,4.991-7.507h-3.1c-.172,1.726-.949,2.243-1.98,2.243-1.894,0-1.982-2.07-1.982-3.71h7.313v-2.589C650.941,126.413,648.607,122.27,645.94,122.27Zm-1.98,9.061c0-1.726.517-3.108,1.72-3.108s1.636,1.726,1.724,3.108Z" transform="translate(-522.802 -99.942)"/>
      <path id="Path_567" data-name="Path 567" class="cls-1" d="M342.071,87.976c-1.377-.09-3.013-1.728-3.443-8.37,0-7.335,1.463-10.7,3.271-10.7,1.379,0,2.066,1.035,2.324,2.243l4.388-3.02c-.689-3.969-3.529-7.421-6.973-7.679-4.993,0-9.125,9.491-8.959,19.068.258,11.045,5.337,17.344,8.776,17.084,3.96,0,6.456-4.657,7.661-7.679h0l-3.874-3.28C344.308,87.371,343.619,87.976,342.071,87.976Z" transform="translate(-271.877 -49.425)"/>
      <path id="Path_568" data-name="Path 568" class="cls-1" d="M158.76,29.376,84.551.731a9.734,9.734,0,0,0-6.628,0L3.457,29.376c-4.388,2.072-4.3,5.609-.344,7.765l73.254,28.22h0a10.569,10.569,0,0,0,9.385.17l73.439-28.294C162.632,35.852,162.46,30.76,158.76,29.376ZM23.687,42.754h0L5.351,35.775c-2.841-1.21-2.753-3.452,0-4.571l18.336-6.9ZM157.3,35.678,97.808,57.767c-7.5,2.761-13.773,5.781-16.184,5.523-4.046-.174-7.919-2.415-7.919-5.523.172-1.724,1.722-3.19,5.165-4.225a82.431,82.431,0,0,1,15.066-1.814l12.482-.172c.947,0,1.549-.6,1.72-1.9V42.324a3.909,3.909,0,0,0,3.013,1.463c2.925.086,4.993-5.953,4.993-11.391-.172-5.781-2.324-10.871-5.509-10.871-1.207,0-1.636.6-2.669,1.646l-.431-.863h-3.958V48.276c-4.048-.172-8.006-.431-11.967-.777-5.509-.172-10.33-.172-14.81.088a39.8,39.8,0,0,0-12.57,3.192c-2.5,1.294-4.3,3.452-5.851,5.178L27.733,44.22h7.145V38.439H29.885V22.22L78.013,3.841a8.4,8.4,0,0,1,7.057,0L133.794,22.22h-4.039V43.187h4.478v-13.2c0-1.463.258-3.108,2.066-3.192a25.512,25.512,0,0,1,2.669-.086V24.2l18.079,6.9C159.793,32.142,159.877,34.558,157.3,35.678Zm-47.522-7.851c1.463,0,1.9,1.986,2.068,4.754-.086,3.019-.689,5.262-2.068,5.262-1.293,0-1.98-3.364-1.894-4.754h0C107.8,31.8,108.226,27.827,109.775,27.827Z" transform="translate(-0.153 -0.15)"/>
    </g>
  </g>
</svg>
