<svg id="Moonstone" xmlns="http://www.w3.org/2000/svg" width="108.836" height="85.428" viewBox="0 0 108.836 85.428">
  <g id="Logos" transform="translate(0 0)">
    <path id="Path_500" data-name="Path 500" d="M166.227,4.85a1.4,1.4,0,0,0-.465.682,44.57,44.57,0,0,1-10.741,14.361,53.905,53.905,0,0,1-17.18,10.459c-.273.1-.649.38-.869.041a2.483,2.483,0,0,1-.4-1.413c0-.2.273-.213.435-.273a53.583,53.583,0,0,0,10.379-5.238,1.535,1.535,0,0,0,.8-1.489c-.029-5.045-.015-10.09-.015-15.29-.417.74-.758,1.351-1.1,1.958a46.847,46.847,0,0,1-11.6,13.427,54.213,54.213,0,0,1-14.042,8.133l-.063.026c-1.167.449-1.26.389-1.569-.8-.112-.428.025-.611.424-.753a45.919,45.919,0,0,0,9.085-4.487A47.365,47.365,0,0,0,144.594,9.21a42.645,42.645,0,0,0,4.13-8.652c.071-.2.067-.537.319-.554.315-.022.318.337.4.554a43.99,43.99,0,0,0,7.226,12.972c.89,1.1.9,1.143,1.794.086a40.963,40.963,0,0,0,6.986-12.1c.145-.382.28-.769.431-1.148.056-.136.087-.335.3-.311.154.018.2.173.252.295.273.682.526,1.355.794,2.032a43.718,43.718,0,0,0,13.921,18.427,51.676,51.676,0,0,0,13.74,7.83c.712.273.71.387.39,1.395-.2.648-.594.491-1.01.333a52.8,52.8,0,0,1-9.941-5.052,52.2,52.2,0,0,1-9.606-7.893,46,46,0,0,1-5.871-7.663C167.886,8.193,167.061,6.555,166.227,4.85Zm-16.2,2.062V21.5a1.169,1.169,0,0,0,.228-.083,46.317,46.317,0,0,0,5.507-4.761c.511-.5.491-.828.035-1.338a38.192,38.192,0,0,1-3.5-4.693C151.509,9.41,150.8,8.14,150.024,6.911Z" transform="translate(-103.426 -0.003)"/>
    <path id="Path_501" data-name="Path 501" d="M2.754,254.638a3.855,3.855,0,0,1,1.847-.954,3.53,3.53,0,0,1,3.1,1.074c.26.285.419.314.7.022a3.866,3.866,0,0,1,3.441-1.091c1.86.21,2.955,1.489,3.039,3.74s.023,4.543.034,6.817c0,.417-.151.6-.6.629-2.055.12-2.037.136-2.059-1.921a48.716,48.716,0,0,0-.1-5.241c-.124-1.042-.526-1.58-1.3-1.662a1.666,1.666,0,0,0-1.807,1.338,5.626,5.626,0,0,0-.26,1.744c0,1.659-.012,3.317.011,4.975,0,.545-.172.781-.743.769-2.243-.046-1.879.289-1.909-1.842-.019-1.43,0-2.863,0-4.294a4.057,4.057,0,0,0-.3-1.732,1.373,1.373,0,0,0-1.278-.965,1.552,1.552,0,0,0-1.477.927,4.8,4.8,0,0,0-.432,2.182c-.014,1.636-.029,3.272,0,4.908.012.629-.21.84-.83.818-2.108-.052-1.8.285-1.815-1.79-.014-2.727,0-5.454,0-8.181,0-.969,0-.969,1-.969h.886C2.573,253.944,2.573,253.946,2.754,254.638Z" transform="translate(0 -219.068)"/>
    <path id="Path_502" data-name="Path 502" d="M727.717,259.883c-1.068,0-2.135.015-3.2,0-.48-.01-.6.166-.473.615a2.6,2.6,0,0,0,1.929,2,2.547,2.547,0,0,0,2.686-.893c.954-1.118.954-1.114,2.242-.357.911.545.912.545.245,1.393a5.747,5.747,0,0,1-7.536,1.558,5.244,5.244,0,0,1-2.438-4.138,5.877,5.877,0,0,1,1.858-5.443,5.257,5.257,0,0,1,5.59-.744,4.579,4.579,0,0,1,2.9,4.118c.041.36.065.723.1,1.091.064.578-.166.834-.768.818C729.809,259.865,728.763,259.883,727.717,259.883Zm-1.227-2.209c.588,0,1.177-.018,1.763,0,.532.02.6-.213.364-.609a2.3,2.3,0,0,0-2.182-1.234,2.43,2.43,0,0,0-2.12,1.363c-.17.305-.078.472.273.472.639.007,1.272.005,1.9.008Z" transform="translate(-622.797 -218.854)"/>
    <path id="Path_503" data-name="Path 503" d="M254.947,412.379c0-1.34.014-2.681-.008-4.021-.008-.536.206-.78.728-.691.575.1,1.284-.365,1.708.428.081.153.273-.074.393-.153a3,3,0,0,1,3.8.384c.273.273.409.3.7.023a3.649,3.649,0,0,1,3.824-.674,2.434,2.434,0,0,1,1.538,1.792,6.472,6.472,0,0,1,.281,1.882c.019,1.68,0,3.361.02,5.045,0,.581-.2.818-.8.807-1.8-.02-1.534.1-1.567-1.512a43.736,43.736,0,0,0-.1-4.764c-.11-.852-.464-1.3-1.091-1.354a1.428,1.428,0,0,0-1.606,1.159,4.784,4.784,0,0,0-.15,1.418c0,1.453-.014,2.908,0,4.363,0,.492-.18.691-.682.689-1.943-.014-1.659.145-1.673-1.6-.008-1.25,0-2.5,0-3.748a3.777,3.777,0,0,0-.18-1.276,1.237,1.237,0,0,0-1.211-1,1.374,1.374,0,0,0-1.354.954,3.907,3.907,0,0,0-.228,1.541v4.227c0,.841-.07.911-.879.909-1.677,0-1.452.1-1.462-1.464C254.947,414.605,254.947,413.492,254.947,412.379Z" transform="translate(-220.179 -351.88)"/>
    <path id="Path_504" data-name="Path 504" d="M367.937,412.137c0-1.363.016-2.727-.01-4.09-.009-.45.149-.626.584-.607.476.02,1.185-.172,1.385.068.616.739.967.038,1.429-.089a3.011,3.011,0,0,1,3.214.682c.273.288.409.371.736.041a3.455,3.455,0,0,1,3.744-.682A2.78,2.78,0,0,1,380.8,410.2c.17,2.045.1,4.09.108,6.136,0,.46-.21.629-.664.652-1.681.085-1.662.1-1.684-1.564a38.814,38.814,0,0,0-.094-4.7c-.136-.968-.483-1.343-1.216-1.372a1.389,1.389,0,0,0-1.5,1.279,17.682,17.682,0,0,0-.136,3.4c-.019.727-.025,1.455,0,2.182.018.537-.154.789-.736.779-1.894-.037-1.6.149-1.614-1.59-.014-1.272,0-2.544,0-3.818a3.568,3.568,0,0,0-.192-1.273,1.219,1.219,0,0,0-1.245-.954,1.358,1.358,0,0,0-1.317,1,4.718,4.718,0,0,0-.222,1.612c0,1.408-.016,2.817,0,4.227.011.586-.21.811-.8.8-1.772-.029-1.534.136-1.55-1.52-.01-1.113,0-2.225,0-3.339Z" transform="translate(-317.762 -351.684)"/>
    <path id="Path_505" data-name="Path 505" d="M373.865,511.039v-2.518a3.707,3.707,0,0,1,3.49-3.748,3.755,3.755,0,0,1,4.13,3.373,38.082,38.082,0,0,1-.033,5.981,3.43,3.43,0,0,1-2.577,3.026c-.682.224-.892.529-.849,1.2.052.835.016,1.676.027,2.514,0,.273,0,.524-.369.506-.33-.015-.391-.256-.393-.528,0-.93-.022-1.861,0-2.791a.7.7,0,0,0-.593-.818,3.608,3.608,0,0,1-2.835-3.745C373.861,512.673,373.865,511.856,373.865,511.039Zm4.063-1.963h.007v-1.227c0-.195.059-.487-.206-.506-.344-.023-.265.307-.273.511-.014.818-.007,1.636-.012,2.454,0,.136.01.289-.136.359s-.256-.052-.349-.136c-.409-.4-.8-.8-1.208-1.194-.136-.136-.289-.372-.5-.136-.165.189.031.326.157.453.558.566,1.111,1.134,1.677,1.692a1.141,1.141,0,0,1,.367.848v1.976c0,.176.035.4-.18.47-.177.059-.273-.123-.385-.232-.384-.386-.757-.785-1.155-1.156-.16-.147-.334-.5-.593-.221-.206.224.094.391.245.545.353.353.7.719,1.07,1.049a2.191,2.191,0,0,1,1.013,2.082c-.027.161-.015.416.254.383.23-.029.247-.273.218-.436a2.085,2.085,0,0,1,.909-1.993c.389-.348.743-.732,1.1-1.108.113-.117.365-.228.184-.431-.2-.229-.371,0-.507.136-.428.409-.841.829-1.264,1.239-.094.091-.211.221-.348.11a.4.4,0,0,1-.116-.3,18.756,18.756,0,0,0,.016-2.381c-.011-.3.224-.473.424-.664.575-.545,1.138-1.11,1.7-1.669.116-.115.235-.251.082-.409s-.292-.026-.409.083c-.409.4-.8.8-1.212,1.2-.136.136-.24.409-.481.273-.21-.115-.108-.364-.1-.563C377.934,509.8,377.929,509.435,377.929,509.076Z" transform="translate(-322.889 -435.945)"/>
    <path id="Path_506" data-name="Path 506" d="M532.07,259.5a5.81,5.81,0,1,1,5.757,5.781A5.622,5.622,0,0,1,532.07,259.5Zm8.882.038a3.076,3.076,0,0,0-5.594-2.048,3.775,3.775,0,0,0,.652,4.817,3.1,3.1,0,0,0,4.943-2.764Z" transform="translate(-459.525 -219.187)"/>
    <path id="Path_507" data-name="Path 507" d="M122.055,259.508a5.809,5.809,0,1,1,5.776,5.755A5.649,5.649,0,0,1,122.055,259.508Zm2.739-.018c0,1.97,1.091,3.3,2.787,3.4a3.011,3.011,0,0,0,3.028-1.659,3.889,3.889,0,0,0-.492-4.1,3.083,3.083,0,0,0-5.323,2.363Z" transform="translate(-105.413 -219.169)"/>
    <path id="Path_508" data-name="Path 508" d="M221.81,259.457a5.591,5.591,0,0,1,5.777-5.677,5.748,5.748,0,1,1-.072,11.494A5.577,5.577,0,0,1,221.81,259.457Zm8.882.119a3.119,3.119,0,0,0-3.079-3.424,3.164,3.164,0,0,0-3.136,3.379,3.119,3.119,0,1,0,6.221.045Z" transform="translate(-191.567 -219.179)"/>
    <path id="Path_509" data-name="Path 509" d="M91.13,367c0-2.43.015-4.859-.011-7.289-.007-.652.23-.875.877-.871,1.467.008,1.467-.016,1.468,1.425,0,1.794.011,3.589,0,5.383,0,.545.115.615.6.338a3.377,3.377,0,0,1,5.015,1.528,5.241,5.241,0,0,1,.248,1.677c.007,1.749-.015,3.5.015,5.245.01.6-.206.792-.791.794-1.548,0-1.549.023-1.549-1.5v-3.883a5.94,5.94,0,0,0-.049-.882c-.145-.919-.585-1.339-1.4-1.377A1.609,1.609,0,0,0,93.68,368.8a5.692,5.692,0,0,0-.206,1.548c.007,1.385-.008,2.771,0,4.156,0,.474-.147.7-.66.717-1.681.068-1.68.083-1.68-1.618Z" transform="translate(-78.695 -309.914)"/>
    <path id="Path_510" data-name="Path 510" d="M639.878,368.423c.667-.7,1.357-1.389,1.992-2.122a1.833,1.833,0,0,1,1.687-.668c.428.042.862.037,1.29.075.185.016.457-.124.53.15.052.188-.164.3-.29.428-.862.841-1.727,1.677-2.591,2.518-.9.879-.9.882-.109,1.875q1.526,1.918,3.054,3.835c.12.151.341.285.2.521-.108.184-.322.125-.5.136a.576.576,0,0,1-.068,0c-2.555-.063-1.763.427-3.409-1.636-.44-.545-.859-1.115-1.31-1.654-.143-.172-.236-.536-.545-.391-.262.121-.157.446-.161.682-.009.772-.02,1.545,0,2.318.014.5-.2.671-.682.682-1.654.052-1.653.065-1.653-1.576V359.835c0-.982.053-1.028,1.044-1.038,1.291-.012,1.293-.012,1.294,1.294v8.181Z" transform="translate(-550.424 -309.875)"/>
    <path id="Path_511" data-name="Path 511" d="M322,259.372c0-1.543.02-3.088-.008-4.636-.012-.6.215-.818.8-.774.43.034.863,0,1.294.011.228,0,.5,0,.533.3.063.645.331.333.6.155a4.121,4.121,0,0,1,5.29.469,4.339,4.339,0,0,1,.911,2.931c.039,2.111,0,4.227.023,6.335,0,.574-.243.772-.781.742a8.4,8.4,0,0,0-1.158,0c-.66.052-.8-.26-.769-.863a45.246,45.246,0,0,0-.048-6.26,1.645,1.645,0,0,0-1.6-1.706,1.929,1.929,0,0,0-2.182,1.434,10.98,10.98,0,0,0-.259,2.705c0,1.317-.012,2.634.01,3.954.008.511-.154.75-.7.739-2.3-.046-1.925.311-1.955-1.858C321.98,261.825,322,260.6,322,259.372Z" transform="translate(-278.085 -219.098)"/>
    <path id="Path_512" data-name="Path 512" d="M636.863,254.753a4.362,4.362,0,0,1,4.345-.8,3.108,3.108,0,0,1,2.108,2.307,7.837,7.837,0,0,1,.236,1.955c-.008,1.976-.016,3.954,0,5.927.007.545-.169.783-.74.77-2.265-.048-1.861.281-1.909-1.837a46.488,46.488,0,0,0-.115-5.375,1.626,1.626,0,0,0-1.676-1.622,1.962,1.962,0,0,0-2.082,1.411,8.825,8.825,0,0,0-.273,2.292c0,1.453-.018,2.908.007,4.363.008.545-.159.783-.738.77-2.182-.046-1.9.273-1.909-1.861-.015-2.727,0-5.454,0-8.181,0-.845.059-.9.879-.9h.954C636.687,253.978,636.687,253.978,636.863,254.753Z" transform="translate(-547.653 -219.1)"/>
    <path id="Path_513" data-name="Path 513" d="M173.556,408.518c-.089-.866.409-.9.942-.9.228,0,.455.01.682-.007.556-.041.764.206.759.764-.018,2.182,0,4.363,0,6.545v.682c0,1.613-.3,1.852-1.916,1.554-.195-.035-.38-.1-.409-.3-.064-.564-.323-.323-.585-.166a4.3,4.3,0,0,1-6.61-2.941,5.331,5.331,0,0,1,1.26-5.068,4.1,4.1,0,0,1,5.346-.52Zm.151,3.859a2.678,2.678,0,0,0-2.282-2.843,2.55,2.55,0,0,0-2.771,2.326,3.014,3.014,0,0,0,1.756,3.328C172.146,415.732,173.709,414.4,173.707,412.377Z" transform="translate(-143.595 -351.852)"/>
    <path id="Path_514" data-name="Path 514" d="M482.039,407.64a4.906,4.906,0,0,1,5.082,5.063,4.991,4.991,0,0,1-4.988,4.918,4.92,4.92,0,0,1-5.123-5.035A4.83,4.83,0,0,1,482.039,407.64Zm-2.66,5a2.647,2.647,0,0,0,2.6,2.878,2.7,2.7,0,0,0,2.76-2.956,2.688,2.688,0,1,0-5.364.078Z" transform="translate(-411.972 -352.06)"/>
    <path id="Path_515" data-name="Path 515" d="M411.677,265.141A3.714,3.714,0,0,1,408.531,263c-.24-.443-.187-.723.3-.889.13-.045.252-.1.376-.161,1.134-.529,1.138-.533,1.969.333a1.508,1.508,0,0,0,1.293.477.955.955,0,0,0,.83-.616.926.926,0,0,0-.17-1.017,2.742,2.742,0,0,0-.912-.7c-.633-.309-1.254-.638-1.877-.965a2.636,2.636,0,0,1-1.477-2.69,3.065,3.065,0,0,1,1.662-2.708,3.44,3.44,0,0,1,4.666,1.3c.206.348.218.567-.188.744a4.874,4.874,0,0,0-.77.435c-.555.376-1.025.564-1.5-.173a.718.718,0,0,0-1.182-.085c-.323.322-.2.8.329,1.117a19.157,19.157,0,0,0,1.812.942c1.988.919,2.741,2.167,2.342,3.928C415.643,264.008,414.1,265.141,411.677,265.141Z" transform="translate(-352.71 -219.047)"/>
    <path id="Path_516" data-name="Path 516" d="M319.75,535.613v1.925a2.759,2.759,0,0,1-1.884,2.794.992.992,0,0,0-.758,1.044c0,.5-.01,1-.038,1.5-.015.248.1.649-.282.654-.44,0-.312-.419-.323-.682q-.034-.818-.007-1.636a.678.678,0,0,0-.5-.761,2.754,2.754,0,0,1-2.1-3.1c0-1.227-.012-2.454,0-3.681a2.815,2.815,0,0,1,2.705-2.791,2.974,2.974,0,0,1,3.1,2.306A16.332,16.332,0,0,1,319.75,535.613Zm-4.858-1.445a1.355,1.355,0,0,0,.59.908,2.583,2.583,0,0,1,1.138,2.7c-.035.214.094.506-.154.619-.3.136-.409-.2-.593-.346-.344-.273-.545-.7-.954-.905-.176.273.023.379.136.506.682.785,1.781,1.291,1.725,2.646-.164-1.512,1.364-1.909,1.917-3.077a4.365,4.365,0,0,0-1.189.975c-.136.11-.233.315-.45.207-.169-.085-.136-.273-.15-.424a2.718,2.718,0,0,1,1.051-2.813,1.267,1.267,0,0,0,.664-1.046c-.449.421-.77.729-1.1,1.032-.13.117-.241.335-.44.262-.237-.087-.168-.345-.176-.545-.012-.294.019-.593-.01-.885-.034-.354.136-.736-.15-1.2a8.706,8.706,0,0,0-.121,2.059c-.011.2.065.45-.161.545s-.344-.146-.483-.281A5.2,5.2,0,0,0,314.892,534.168Z" transform="translate(-271.058 -458.489)"/>
    <path id="Path_517" data-name="Path 517" d="M478.644,237.47c0-1.137-.01-2.273,0-3.409,0-.455-.078-.689-.62-.84-.928-.26-.307-1.117-.442-1.692-.082-.348-.053-.773.5-.757.466.012.569-.241.562-.648-.014-.863.019-1.727-.008-2.591-.018-.545.211-.723.727-.716,2.261.031,1.884-.225,1.92,1.85.01.5.016,1,0,1.5-.014.442.188.612.616.6,1.515-.057,1.293.041,1.3,1.418.008,1.068,0,1.106-1.091,1.066-.682-.026-.843.248-.834.877.027,2.25,0,4.5.018,6.749.007.608-.176.851-.818.834-2.15-.056-1.8.247-1.831-1.786C478.635,239.106,478.644,238.288,478.644,237.47Z" transform="translate(-412.397 -195.893)"/>
    <path id="Path_518" data-name="Path 518" d="M446.894,535.682c0-.634-.007-1.269,0-1.909a2.892,2.892,0,0,1,2.931-2.924,2.929,2.929,0,0,1,2.97,2.912c.018,1.248.009,2.5,0,3.741a2.877,2.877,0,0,1-2.1,2.918c-.449.146-.623.352-.6.818.03.611.01,1.227,0,1.837,0,.2.007.451-.288.443s-.288-.255-.293-.454c-.014-.612-.026-1.227-.008-1.837a.724.724,0,0,0-.539-.809,2.712,2.712,0,0,1-2.079-3.038Q446.894,536.534,446.894,535.682Zm4.772,1.612a4.017,4.017,0,0,0-1.137.916c-.143.12-.307.353-.48.041a4.01,4.01,0,0,1,.378-2.518,5,5,0,0,0,1.14-1.343,2.417,2.417,0,0,0-.943.724c-.136.136-.248.4-.473.312s-.12-.359-.136-.545a15.2,15.2,0,0,0-.065-2.025c-.379.173-.273.432-.273.635-.019.453,0,.907-.011,1.363,0,.192.08.45-.169.534-.2.067-.3-.158-.44-.263-.353-.262-.545-.744-1.147-.851a3.177,3.177,0,0,0,.934,1.091,1.94,1.94,0,0,1,.818,2.007c-.056.341.194.838-.18.988-.308.124-.5-.375-.772-.566s-.384-.6-.926-.515c.848.954,2.056,1.564,2.074,3.053-.135-1.535,1.275-2,1.82-3.039Z" transform="translate(-385.959 -458.47)"/>
    <path id="Path_519" data-name="Path 519" d="M570.521,409.5c0,.363.009.727,0,1.091s-.181.384-.428.17c-.1-.089-.194-.191-.29-.285a2.665,2.665,0,0,0-3.336-.615,2.939,2.939,0,0,0-1.331,3.351,2.519,2.519,0,0,0,1.841,1.993,2.688,2.688,0,0,0,2.791-.8c.183-.188.341-.574.592-.487.324.113.136.517.164.794s0,.59,0,.885c0,1.227,0,1.227-1.2,1.579a5.061,5.061,0,0,1-6.545-3.653,4.825,4.825,0,0,1,1.958-5.163,5.444,5.444,0,0,1,5.2-.545.76.76,0,0,1,.589.87c-.023.273,0,.545,0,.818Z" transform="translate(-485.945 -351.864)"/>
    <path id="Path_520" data-name="Path 520" d="M521.762,565.879h6.063c.806,0,.818.052.849.931.019.6-.046.983-.818.978-4.065-.029-8.13-.011-12.195-.015-.818,0-.784-.029-.832-1.227-.027-.671.326-.682.8-.674C517.675,565.888,519.719,565.879,521.762,565.879Z" transform="translate(-444.635 -488.717)"/>
    <path id="Path_521" data-name="Path 521" d="M194.116,567.773h-6.125c-.774,0-.833-.079-.832-.954s.056-.938.841-.938q6.125,0,12.249-.011c.545,0,.811.15.734.736-.068.513.229,1.192-.743,1.178C198.2,567.754,196.157,567.775,194.116,567.773Z" transform="translate(-161.641 -488.717)"/>
    <path id="Path_522" data-name="Path 522" d="M379.995,176.314a2.39,2.39,0,0,1,2.367-2.454,2.419,2.419,0,0,1,2.439,2.408,2.383,2.383,0,0,1-2.364,2.4A2.286,2.286,0,0,1,379.995,176.314Z" transform="translate(-328.183 -150.155)"/>
  </g>
</svg>
