<svg id="Nivea" xmlns="http://www.w3.org/2000/svg" width="125.069" height="33.479" viewBox="0 0 125.069 33.479">
  <defs>
    <style>
      .cls-1 {
        fill-rule: evenodd;
      }
    </style>
  </defs>
  <path id="Path_447" data-name="Path 447" class="cls-1" d="M57.335,85.924,50.713,73.237H41.545l15.79,30.1,15.743-30.1H63.957Zm57.7-5.973L127.9,102.64h-9.91l-1.574-3.149H105.213l-1.528,3.149H93.776L110.815,72.5Zm0-4.584a1.167,1.167,0,0,0,.926-.416,1.333,1.333,0,0,0,.416-.973,1.232,1.232,0,0,0-.416-.926,1.166,1.166,0,0,0-.926-.417,1.332,1.332,0,0,0-.973.417,1.189,1.189,0,0,0-.371.926,1.5,1.5,0,0,0,.371.973A1.334,1.334,0,0,0,115.03,75.367Zm0-3.01a1.434,1.434,0,0,0-1.111.463,1.365,1.365,0,0,0-.511,1.157,1.47,1.47,0,0,0,.463,1.157,1.577,1.577,0,0,0,1.158.509,1.822,1.822,0,0,0,1.157-.463,1.636,1.636,0,0,0,.463-1.2,1.6,1.6,0,0,0-.463-1.157,1.534,1.534,0,0,0-1.156-.463Zm0,1.9c.045,0,.093.047.138.047s.093.046.093.139c.047.046.047.092.047.231a.351.351,0,0,0,.045.231h.416V74.58a.449.449,0,0,0-.185-.416c-.045-.046-.138-.046-.231-.093a.5.5,0,0,0,.324-.139.44.44,0,0,0,.093-.324.4.4,0,0,0-.231-.417.876.876,0,0,0-.371-.093h-.88V74.9h.509v-.648Zm0-.833H114.8v.509h.232c.093,0,.138-.046.185-.046.093-.046.093-.139.093-.231s-.047-.185-.14-.185A.166.166,0,0,0,115.03,73.422Zm-4.215,15.094-2.824,5.464h5.65l-2.826-5.464ZM39.739,102.64v-29.4H31.173v29.4Zm53.25-21.531V73.237H74.883v29.4H92.989V94.815H83.5V90.971h9.492V84.813H83.5v-3.7Zm-66.91-7.872H17.513V84.674L2.834,71.338v31.3H11.4V91.711l14.678,13.105V73.237Z" transform="translate(-2.834 -71.338)"/>
</svg>
