<svg id="Sketchers" xmlns="http://www.w3.org/2000/svg" width="274.911" height="24.285" viewBox="0 0 274.911 24.285">
  <g id="Logos">
    <path id="Path_482" data-name="Path 482" d="M35.219,12.446c1.6-3.522-.593-4.889-5.785-4.889H20.755c-1.895,0-2.292-.152-1.873-1.063l.629-1.36c.383-.875.94-1.049,2.835-1.049H33.708a10.8,10.8,0,0,1,4.621.8L39.457.08H16.72c-4.339,0-7.7,1.967-9.4,5.785L4.845,11.253c-1.88,4.035-.528,5.236,4.339,5.236H19.193c1.909,0,2.227.188,1.822,1.063l-.767,1.671c-.4.9-.89,1.049-2.791,1.049H5.612a8.845,8.845,0,0,1-4.39-.911L0,24.307H22.122c5.887,0,8.678-2.133,10.378-5.93Z" transform="translate(0 -0.022)"/>
    <path id="Path_483" data-name="Path 483" d="M106.518,13.757a17.581,17.581,0,0,1,5.25.651l2.43-5.286a25.709,25.709,0,0,1-5.829.629h-8.75l2.611-5.663H112.2a17.357,17.357,0,0,1,5.33.629l1.1-4.657H90.774c.188.955.145,1.851-.9,4.151L82.61,20.121a13.111,13.111,0,0,1-1.786,3.037,22.26,22.26,0,0,1-1.62-3.833L75.262,7.248l8.121-4.795A24.35,24.35,0,0,1,88.7.06H77.482a6.082,6.082,0,0,1-.3.911c-.369.81-.962,1.4-2.893,2.625L62.52,10.937l3.059-6.718A11.238,11.238,0,0,1,68.471.06H54.21c.188.955.166,1.844-.89,4.151l-7.268,15.91a11.318,11.318,0,0,1-2.893,4.173H57.407c-.145-.984-.145-1.88.9-4.18L59.981,16.5l4.035-2.481L66.5,24.287h41.532l3.247-4.672a24.27,24.27,0,0,1-5.785.644H94.81L97.8,13.75Z" transform="translate(-11.947 -0.017)"/>
    <path id="Path_484" data-name="Path 484" d="M170.167,18.376a42.234,42.234,0,0,1-8.751.9h-5.735c-1.244,0-1.627-.347-1.157-1.533s5.207-11.376,5.207-11.376A2.372,2.372,0,0,1,162.017,5h9.011a13.675,13.675,0,0,1,4.252.723L176.727.152h-.072L176.7,0H157.389c-5.25,0-9.018,1.888-11.412,7.123l-4.556,9.987c-2.394,5.2-.325,7.116,4.882,7.116h19.822Z" transform="translate(-38.874 0)"/>
    <path id="Path_485" data-name="Path 485" d="M216.01,20.081l7.282-15.91A11.173,11.173,0,0,1,226.185.02H211.931c.174.955.166,1.844-.89,4.144L208.518,9.7h-9.141l2.546-5.532A10.992,10.992,0,0,1,204.815.02H190.539c.181.955.159,1.837-.911,4.144L182.4,20.074a11.339,11.339,0,0,1-2.936,4.173h14.283c-.166-.969-.159-1.873.918-4.166l2.893-6.364h9.127l-2.893,6.364a11.382,11.382,0,0,1-2.893,4.166h14.261C214.954,23.285,214.976,22.381,216.01,20.081Z" transform="translate(-49.678 -0.006)"/>
    <path id="Path_486" data-name="Path 486" d="M255.792,20.249H245.154l2.965-6.509h8.743a17.436,17.436,0,0,1,5.236.644L264.521,9.1a25.7,25.7,0,0,1-5.785.629h-8.787l2.6-5.67h10.016a17.841,17.841,0,0,1,5.294.636L268.954,0H241.133c.166.955.145,1.844-.918,4.151l-7.232,15.91a11.8,11.8,0,0,1-2.893,4.173h28.284l3.24-4.665A23.865,23.865,0,0,1,255.792,20.249Z" transform="translate(-63.693)"/>
    <path id="Path_487" data-name="Path 487" d="M307.268,13.76c2.683-.137,5.062-.333,6.718-3.883l2.025-4.462C317.862,1.35,315.743.07,310.117.07H283.692c.47.962.456,1.851-.607,4.158l-7.232,15.91A10.971,10.971,0,0,1,272.96,24.3h14.276c-.166-.976-.159-1.88.9-4.173l2.893-6.357H294.8l1.012,10.53h13.74c-.658-.926-.673-2.17-.955-3.724ZM303.731,5.4,302.4,8.358c-.535,1.172-1.078,1.36-2.661,1.367h-6.928l2.632-5.67h6.9C303.912,4.047,304.288,4.221,303.731,5.4Z" transform="translate(-75.56 -0.019)"/>
    <path id="Path_488" data-name="Path 488" d="M344.425,5.062c.412-.875.947-1.056,2.893-1.056h11.39a11,11,0,0,1,4.621.81L364.876,0H341.669c-4.339,0-7.673,1.96-9.4,5.785L329.831,11.2c-1.88,4.035-.521,5.236,4.339,5.236h9.994c1.895,0,2.242.188,1.815,1.07l-.73,1.649c-.4.9-.875,1.049-2.813,1.049H330.569a9.083,9.083,0,0,1-4.4-.9L325,24.234h22.093c5.894,0,8.678-2.17,10.4-5.945l2.712-5.908c1.613-3.522-.579-4.889-5.785-4.889h-8.678c-1.916,0-2.3-.137-1.873-1.056Z" transform="translate(-89.966)"/>
    <path id="Path_489" data-name="Path 489" d="M369.915,28.5a1.813,1.813,0,1,1-.007,0Zm0,.362a1.446,1.446,0,1,0,1.389,1.446,1.41,1.41,0,0,0-1.389-1.446Zm-.311,2.5h-.419v-2.01a3.841,3.841,0,0,1,.644-.058,1.135,1.135,0,0,1,.687.159.506.506,0,0,1,.174.434.485.485,0,0,1-.383.47h0c.181,0,.289.2.325.492a1.69,1.69,0,0,0,.108.5H370.3a1.785,1.785,0,0,1-.123-.528.325.325,0,0,0-.376-.3h-.2Zm0-1.157h.2c.253,0,.441-.08.441-.289s-.116-.3-.405-.3H369.6Z" transform="translate(-101.896 -7.889)"/>
  </g>
</svg>
