<svg id="UFC" xmlns="http://www.w3.org/2000/svg" width="83.37" height="84.521" viewBox="0 0 83.37 84.521">
  <g id="Logos" transform="translate(0 0)">
    <path id="Path_523" data-name="Path 523" d="M42.572,84.557A41.7,41.7,0,0,1,24.378,80.74a41.147,41.147,0,0,1-10.73-7.214A42.407,42.407,0,0,1,.421,47.98a40.511,40.511,0,0,1-.38-6.613A42.821,42.821,0,0,1,4.557,23.151a42.334,42.334,0,0,1,6.832-9.83A41.537,41.537,0,0,1,24.9,3.616,40.3,40.3,0,0,1,37.842.223,41.344,41.344,0,0,1,72.355,13.633a41.9,41.9,0,0,1,8.051,12.916,42.612,42.612,0,0,1,2.74,11.043,43.419,43.419,0,0,1,.048,8.886A42.259,42.259,0,0,1,66.377,76.384a40.893,40.893,0,0,1-15.823,7.238A36.086,36.086,0,0,1,42.572,84.557ZM78.55,42.6c-.027-.9-.027-1.793-.093-2.691A38,38,0,0,0,76.265,29.6,37.375,37.375,0,0,0,55.721,7.9,36.35,36.35,0,0,0,12.509,19.425,37.145,37.145,0,0,0,4.882,42.05a33.686,33.686,0,0,0,.259,4.3A38.166,38.166,0,0,0,8.49,58.169,37.186,37.186,0,0,0,34.576,78.841a35.72,35.72,0,0,0,12.313.425A36.4,36.4,0,0,0,68.427,68.144,37.371,37.371,0,0,0,78.55,42.6Z" transform="translate(-0.029 -0.042)"/>
    <path id="Path_524" data-name="Path 524" d="M236.109,215.4a24.715,24.715,0,0,1-17.488,22.386,23.221,23.221,0,0,1-16.951-1.267,24.152,24.152,0,0,1-12.744-14.047,24.689,24.689,0,0,1,19.282-32.721,23.13,23.13,0,0,1,16.859,3.7,24.218,24.218,0,0,1,10.028,13.549A26.943,26.943,0,0,1,236.109,215.4Zm-25.079,6.939a.611.611,0,0,0,.148-.028q2.407-1.03,4.811-2.066a.47.47,0,0,0,.3-.6c-.093-.3-.345-.344-.6-.278a.755.755,0,0,1-.972-.541c-.637-1.508-1.293-3.008-1.936-4.514-.723-1.69-1.449-3.38-2.151-5.078-.172-.414-.379-.5-.772-.289-.339.186-.707.307-1.062.464-.835.365-1.67.722-2.5,1.1-.23.107-.508.259-.392.59a.532.532,0,0,0,.633.352c.415-.056.62.186.767.526,1.158,2.73,2.312,5.463,3.487,8.185.226.523.448.99-.117,1.441a.424.424,0,0,0-.057.52A.4.4,0,0,0,211.03,222.342Zm-10.878,4.328a6.672,6.672,0,0,0,2.818-.557c.173-.07.446-.117.358-.392-.1-.32-.121-.816-.557-.81a1.509,1.509,0,0,1-1.469-1.129c-1.126-2.593-2.227-5.2-3.35-7.8a.777.777,0,0,1,.164-.97c.186-.176.356-.362.176-.64-.17-.262-.416-.229-.664-.166a2.59,2.59,0,0,0-.393.136c-1.065.456-2.134.91-3.193,1.374-.339.148-.674.311-1,.492a.471.471,0,0,0-.268.541.417.417,0,0,0,.5.319c.49-.063.725.186.9.6.928,2.206,1.891,4.4,2.82,6.608C197.631,225.788,198.618,226.764,200.153,226.67Zm24.4-10.224a4.278,4.278,0,0,0,1.5-.264c.186-.064.565-.046.453-.383-.1-.3-.1-.758-.615-.742a1.213,1.213,0,0,1-1.165-.771c-.2-.383-.346-.792-.517-1.189-.89-2.072-1.785-4.142-2.666-6.218a1.809,1.809,0,0,1,.112-2.084c.228-.269-.056-.6-.213-.84-.17-.263-.4-.039-.557.07a5.461,5.461,0,0,0-2.585,4.613,8.7,8.7,0,0,0,1.942,5.676A5.086,5.086,0,0,0,224.55,216.446ZM206,222.371a5.839,5.839,0,0,0-.493-1.956q-1.178-2.748-2.349-5.5a2.024,2.024,0,0,1,.194-2.148c.146-.195.328-.4.13-.665s-.464-.205-.715-.1q-1.175.5-2.339,1.012c-.232.1-.457.237-.414.544.047.331.32.4.586.423a1.747,1.747,0,0,1,1.085.459,3.419,3.419,0,0,1,.742,1.218c.767,1.79,1.533,3.58,2.284,5.376a3.1,3.1,0,0,1,.239,1.809,2.618,2.618,0,0,1-.938,1.5.819.819,0,0,0,.117,1.034c.277.241.426-.055.579-.186A3.608,3.608,0,0,0,206,222.371Zm21.509-16.007a8.153,8.153,0,0,0-.577-1.474c-.323-.8-.674-1.593-1.021-2.387a.531.531,0,0,0-.516-.4.468.468,0,0,0-.427.371c-.209.671-.289.742-.983.77a10.529,10.529,0,0,0-1.429.122c-.254.045-.326.151-.237.418.135.4.333.644.8.573a1.616,1.616,0,0,1,.728.11,5.283,5.283,0,0,1,2.4,1.748,7.121,7.121,0,0,0,.539.571.376.376,0,0,0,.47.071A.494.494,0,0,0,227.511,206.365ZM216,210.185a1.546,1.546,0,0,0-.047-.154q-.583-1.392-1.169-2.778c-.108-.259-.278-.288-.522-.181-.835.365-1.676.72-2.515,1.077-.557.238-.576.316-.3.848.173.328.435.3.715.249a2.894,2.894,0,0,1,2.466.664c.238.2.453.42.683.627a.357.357,0,0,0,.464.051A.41.41,0,0,0,216,210.185Zm.456,5.253a.809.809,0,0,0-.032-.135c-.541-1.281-1.077-2.562-1.63-3.836a.406.406,0,0,0-.521-.278.442.442,0,0,0-.3.518,2.285,2.285,0,0,1-.371,1.846c-.214.278.152,1.055.483,1.069a1.9,1.9,0,0,1,1.34.735,4.268,4.268,0,0,0,.427.422.379.379,0,0,0,.605-.341Zm12.228-3.76a3.2,3.2,0,0,1-1.4,2.809c-.272.186-.247.551.026.928.194.268.383.108.557-.008a4.209,4.209,0,0,0,1.8-3.047,2.943,2.943,0,0,0-.026-1.15.5.5,0,0,0-.568-.431c-.315.033-.392.256-.393.529Z" transform="translate(-170.109 -171.863)"/>
    <path id="Path_525" data-name="Path 525" d="M510.473,98.2q-1.229,1.381-2.46,2.761c-.154.173-.3.35-.47.511-.3.3-.532.234-.593-.186-.106-.733-.16-1.474-.257-2.209a9.934,9.934,0,0,0-.348-2.15c-.085.258-.173.516-.257.775-.305.941-.614,1.881-.911,2.825-.081.257-.186.411-.493.328-.336-.093-.284-.313-.209-.546q.754-2.34,1.512-4.678c.066-.2.151-.389.421-.314.29.082.628.093.667.516.086.928.186,1.844.278,2.766.045.464.081.923.124,1.385.009.107.006.242.11.29.125.057.186-.078.252-.154.928-1.034,1.87-2.058,2.784-3.106.3-.342.586-.172.878-.058.315.122.144.364.084.557-.49,1.547-.99,3.091-1.485,4.64-.081.255-.186.408-.5.3s-.3-.286-.218-.541c.393-1.218.778-2.44,1.166-3.659Z" transform="translate(-457.613 -86.457)"/>
    <path id="Path_526" data-name="Path 526" d="M188.763,674.052c.721.081,1.364.152,2.007.225a.417.417,0,0,1,.414.364q.193,1.047.4,2.091a.421.421,0,0,1-.261.485c-.594.328-1.189.654-1.779.99a.456.456,0,0,1-.617-.086c-.469-.446-.951-.88-1.442-1.3a.474.474,0,0,1-.137-.65c.278-.567.557-1.137.809-1.715C188.3,674.143,188.493,673.985,188.763,674.052Z" transform="translate(-169.899 -611.491)"/>
    <path id="Path_527" data-name="Path 527" d="M749.962,362.409a7.625,7.625,0,0,0-.074,1.051c.018.435-.2.6-.577.69-.571.137-1.137.3-1.7.469a.5.5,0,0,1-.661-.23c-.35-.565-.728-1.114-1.1-1.661a.412.412,0,0,1,.029-.578c.431-.506.848-1.021,1.257-1.547a.5.5,0,0,1,.645-.186c.576.224,1.154.445,1.742.638a.538.538,0,0,1,.445.643A6.886,6.886,0,0,0,749.962,362.409Z" transform="translate(-676.543 -326.931)"/>
    <path id="Path_528" data-name="Path 528" d="M663.521,198.559a7.265,7.265,0,0,0-1.559,1.188c-.526.454-1.038.928-1.551,1.392-.2.178-.358.262-.584.02s-.141-.391.062-.572q1.867-1.666,3.73-3.336c.11-.1.245-.268.393-.122.211.211.5.4.451.764a5.037,5.037,0,0,1-.166.675c-.355,1.263-.716,2.526-1.071,3.79-.048.174-.074.355-.135.65l2.112-1.879c.345-.309.7-.612,1.028-.934.195-.186.346-.211.543,0a.349.349,0,0,1-.017.584c-1.224,1.086-2.44,2.18-3.669,3.26-.142.126-.3.385-.546.163s-.464-.427-.351-.831c.371-1.275.714-2.558,1.066-3.839Z" transform="translate(-598.477 -178.789)"/>
    <path id="Path_529" data-name="Path 529" d="M99.67,333.319q-1.9-.512-3.8-1.021c-.249-.068-.537-.083-.431-.494.111-.426.376-.314.65-.239,1.476.4,2.955.793,4.429,1.206.214.059.562,0,.557.357a.752.752,0,0,1-.571.794c-1.417.438-2.827.9-4.238,1.362-.14.045-.371.035-.371.207-.006.192.233.16.371.2,1.114.309,2.237.608,3.356.91.258.07.528.112.421.508s-.347.305-.614.233c-1.492-.406-2.986-.8-4.476-1.212-.212-.059-.574,0-.552-.358a.805.805,0,0,1,.569-.851c1.114-.324,2.214-.687,3.32-1.036.464-.148.934-.3,1.4-.449Z" transform="translate(-85.642 -300.736)"/>
    <path id="Path_530" data-name="Path 530" d="M88.86,468.2a1.463,1.463,0,0,1,.731-1.4,1.368,1.368,0,0,1,1.6.225c.186.158.3.193.4-.075a1.327,1.327,0,0,1,1.329-.892,1.5,1.5,0,0,1,1.453.818,5.653,5.653,0,0,1,.438,2.3c.024.244-.179.3-.371.326-1.611.192-3.222.38-4.832.574-.351.042-.557-.054-.588-.447C88.98,469.148,88.913,468.673,88.86,468.2Zm5.161.2c-.019-.149-.035-.35-.071-.547a2.334,2.334,0,0,0-.116-.4.92.92,0,0,0-.971-.611.826.826,0,0,0-.8.765,6.1,6.1,0,0,0-.007.922.379.379,0,0,0,.474.418c.4-.041.8-.08,1.193-.129C93.931,468.789,94.07,468.69,94.021,468.4Zm-4.034.84c.4-.04.764-.076,1.13-.115.144-.015.307-.045.292-.225a1.849,1.849,0,0,0-.332-1.133.814.814,0,0,0-.943-.309.829.829,0,0,0-.562.865c0,.2.058.4.066.6C89.645,469.171,89.746,469.295,89.987,469.237Z" transform="translate(-80.617 -422.807)"/>
    <path id="Path_531" data-name="Path 531" d="M222.447,158.256c-1.606.093-3.062-1.694-3.105-3.231a2.864,2.864,0,0,1,2.747-2.735,3.449,3.449,0,0,1,3.087,3.311A2.752,2.752,0,0,1,222.447,158.256Zm1.975-2.6a3.017,3.017,0,0,0-1.491-2.366,1.871,1.871,0,0,0-2.784,1.53,2.875,2.875,0,0,0,1.681,2.559,1.9,1.9,0,0,0,2.595-1.724Z" transform="translate(-198.989 -138.161)"/>
    <path id="Path_532" data-name="Path 532" d="M439.72,89.774a3.078,3.078,0,0,1-.66,2.166,2.622,2.622,0,0,1-2.934.826,2.464,2.464,0,0,1-1.832-2.214,3.092,3.092,0,0,1,1.175-3.205,2.651,2.651,0,0,1,2.944-.108A2.566,2.566,0,0,1,439.72,89.774Zm-4.658.093a2.743,2.743,0,0,0,.14,1.076,1.767,1.767,0,0,0,1.809,1.238,1.719,1.719,0,0,0,1.755-1.243,3.374,3.374,0,0,0,.067-2.007,1.71,1.71,0,0,0-1.41-1.3,1.87,1.87,0,0,0-2.071.965,2.41,2.41,0,0,0-.292,1.267Z" transform="translate(-393.951 -78.79)"/>
    <path id="Path_533" data-name="Path 533" d="M169.289,209.076a3.472,3.472,0,0,1-3.229-3.127,2.877,2.877,0,0,1,2.678-2.749A3.464,3.464,0,0,1,172,206.388,2.8,2.8,0,0,1,169.289,209.076Zm1.968-2.739a1.521,1.521,0,0,0-.321-.995,3.415,3.415,0,0,0-1.578-1.246,1.7,1.7,0,0,0-1.921.406,1.752,1.752,0,0,0-.517,1.9,2.793,2.793,0,0,0,1.726,1.759A1.883,1.883,0,0,0,171.258,206.336Z" transform="translate(-150.653 -184.347)"/>
    <path id="Path_534" data-name="Path 534" d="M282.671,117.3a2.345,2.345,0,0,1,2.029.985,3.009,3.009,0,0,1,.213,3.7,4.351,4.351,0,0,1-1.936,1.3c-.921.4-.935.4-1.342-.52-.6-1.356-1.176-2.721-1.763-4.083-.074-.173-.121-.336.093-.427A9.581,9.581,0,0,1,282.671,117.3Zm1.992,3.171c-.006-.108-.007-.216-.019-.324a2.076,2.076,0,0,0-2.309-2.062,5.278,5.278,0,0,0-1.348.487.279.279,0,0,0-.158.414q.732,1.706,1.465,3.408a.344.344,0,0,0,.523.192,4.454,4.454,0,0,0,1.021-.538A1.806,1.806,0,0,0,284.663,120.471Z" transform="translate(-253.847 -106.419)"/>
    <path id="Path_535" data-name="Path 535" d="M99.688,514.919a1.265,1.265,0,0,1,.81-1.114,1.392,1.392,0,0,1,1.651.122c.367.333.523.264.792-.113a14.542,14.542,0,0,1,1.276-1.465c.124-.133.265-.472.473-.261a.566.566,0,0,1,.044.835c-.412.438-.808.893-1.23,1.322a1.227,1.227,0,0,0-.325,1.149c.055.326.186.457.533.341.5-.167,1.008-.3,1.508-.452.291-.093.464-.031.549.287s-.127.4-.362.464c-1.527.441-3.057.876-4.58,1.332-.39.117-.6.058-.7-.371A8.5,8.5,0,0,1,99.688,514.919Zm.721.371c.007.051.016.112.024.173.154,1.1.254,1.162,1.3.842.95-.291,1.013-.444.548-1.339a.878.878,0,0,0-.119-.2.952.952,0,0,0-1.077-.327.875.875,0,0,0-.676.846Z" transform="translate(-90.439 -464.509)"/>
    <path id="Path_536" data-name="Path 536" d="M614.642,168.526a.549.549,0,0,0-.239-.544c-.4-.337-.812-.664-1.213-1a.455.455,0,0,0-.594-.023c-.278.172-.557.336-.835.5a.425.425,0,0,1-.512.017c-.4-.265-.41-.391.009-.634,1.534-.892,3.073-1.775,4.6-2.67a.464.464,0,0,1,.59.04.5.5,0,0,1,.222.6c-.571,1.729-1.133,3.46-1.7,5.19-.046.139-.093.355-.3.238s-.489-.267-.4-.6c.074-.283.186-.557.278-.835C614.59,168.692,614.626,168.574,614.642,168.526Zm1.147-3.318-.124-.084-1.856,1.114c-.146.087-.206.194-.048.325q.518.427,1.041.849c.111.093.207.05.252-.079Q615.422,166.272,615.789,165.208Z" transform="translate(-554.253 -148.865)"/>
    <path id="Path_537" data-name="Path 537" d="M93.521,404.953a.414.414,0,0,1-.364.495c-.256.056-.5.162-.761.2a.673.673,0,0,0-.62.728c-.025.464-.067.928-.11,1.385a.516.516,0,0,0,.356.577c.264.113.531.251.8.362a.478.478,0,0,1,.324.545c-.028.338-.148.43-.475.267q-2.386-1.192-4.783-2.355a.507.507,0,0,1-.347-.572.516.516,0,0,1,.452-.5q2.545-.713,5.084-1.441C93.361,404.571,93.548,404.594,93.521,404.953Zm-4.8,1.688-.019.14c.638.3,1.273.6,1.914.888.195.088.341.017.367-.2.045-.381.076-.765.109-1.148.018-.21-.093-.284-.285-.234-.693.183-1.387.371-2.083.557Z" transform="translate(-79.419 -367.069)"/>
    <path id="Path_538" data-name="Path 538" d="M119.54,575.12a2.164,2.164,0,0,1,2.107,1.664A1.76,1.76,0,0,1,120.87,579a35.582,35.582,0,0,1-3.4,1.81c-.253.126-.358-.025-.464-.219-.127-.228-.071-.357.158-.475,1.021-.524,2.042-1.044,3.036-1.6a1.278,1.278,0,0,0,.674-1.747,1.261,1.261,0,0,0-1.878-.742c-1,.483-1.991,1-2.97,1.523-.325.173-.541.186-.694-.186-.071-.172-.05-.311.119-.391a37.081,37.081,0,0,1,3.576-1.757A2.362,2.362,0,0,1,119.54,575.12Z" transform="translate(-104.602 -521.753)"/>
    <path id="Path_539" data-name="Path 539" d="M582.532,131.227a2.21,2.21,0,0,1-1.184-.349c-.524-.312-.586-.287-.886.26-.178.326-.36.65-.534.976-.106.2-.212.329-.469.192s-.353-.278-.2-.548c.557-1,1.108-2,1.662-3,.255-.459.522-.912.762-1.38.143-.278.3-.359.58-.181.444.278.923.507,1.355.8a1.579,1.579,0,0,1,.708,1.965A1.755,1.755,0,0,1,582.532,131.227Zm1.1-1.926c-.006-.6-.581-.828-1.075-1.131a.333.333,0,0,0-.529.157c-.215.392-.42.788-.65,1.17-.193.318-.144.536.193.707a3.014,3.014,0,0,0,.635.27A1.155,1.155,0,0,0,583.629,129.3Z" transform="translate(-525.44 -115.31)"/>
    <path id="Path_540" data-name="Path 540" d="M375.926,92.209a2.991,2.991,0,0,1,3.609-3.073c.4.05.424.371.413.662-.007.213-.2.135-.328.109a2.707,2.707,0,0,0-1.68.112,1.9,1.9,0,0,0-1.143,1.31,2.707,2.707,0,0,0,.464,2.454,2.164,2.164,0,0,0,2.554.445,1.792,1.792,0,0,1,.251-.116c.153-.036.316-.329.456-.053a.474.474,0,0,1-.122.625,2.848,2.848,0,0,1-4.211-1.124A3.085,3.085,0,0,1,375.926,92.209Z" transform="translate(-341.036 -80.84)"/>
    <path id="Path_541" data-name="Path 541" d="M711.644,257.547H712.8a.493.493,0,0,1,.354.083.545.545,0,0,1,.233.48c-.043.223-.266.171-.424.173-.989.008-1.979.044-2.97,0a4.165,4.165,0,0,0-2.046.768c-.4.2-.552.159-.671-.206a.264.264,0,0,1,.119-.354.226.226,0,0,1,.04-.024c1.73-.583,2.475-2.142,3.445-3.477a1.3,1.3,0,0,1,.161-.226c.14-.124.2-.5.443-.31a.561.561,0,0,1,.146.819c-.45.609-.887,1.226-1.326,1.842-.076.108-.239.205-.16.355s.25.081.382.083c.371.007.742,0,1.114,0Z" transform="translate(-641.625 -230.798)"/>
    <path id="Path_542" data-name="Path 542" d="M135.98,258.379a.39.39,0,0,1-.633.345c-1.411-.8-2.815-1.615-4.233-2.4-.38-.21-.42-.4-.186-.759.336-.518.614-1.072.928-1.607.127-.219.22-.527.581-.341.41.212.136.47.02.694-.186.356-.394.7-.6,1.047a.372.372,0,0,0,.156.581c.337.186.679.371,1.009.571.219.134.337.05.442-.143.207-.38.422-.755.629-1.135.116-.212.234-.355.508-.2.254.148.251.312.115.533-.17.278-.326.561-.49.842-.336.572-.324.619.269.954.4.227.813.446,1.215.678C135.833,258.117,135.987,258.187,135.98,258.379Z" transform="translate(-118.649 -230.034)"/>
    <path id="Path_543" data-name="Path 543" d="M553.888,749.46a.251.251,0,0,1-.067.245c-.5.718-.391,1.058.417,1.346a1.511,1.511,0,0,0,2.012-1.67,5.025,5.025,0,0,0-.278-.978,19.565,19.565,0,0,0-.673-1.912,1.53,1.53,0,0,0-.406.667,5.632,5.632,0,0,1-1.162,1.716c-.286.266-.508.224-.726-.08a2.209,2.209,0,0,1-.39-.933,5.434,5.434,0,0,0-.419-1.561c-.067-.132-.144-.342.023-.417.21-.093.289.139.343.284a12.208,12.208,0,0,1,.422,1.756c.052.243.036.6.338.656.27.052.376-.272.526-.455a6.072,6.072,0,0,0,1-1.66,1.234,1.234,0,0,0,.033-.986c-.068-.156-.162-.364.039-.449.235-.1.326.151.382.305.219.594.415,1.2.606,1.8.2.633.4,1.268.575,1.908a1.755,1.755,0,0,1-1.013,2.295,1.94,1.94,0,0,1-2-.371A.9.9,0,0,1,553.888,749.46Z" transform="translate(-500.885 -675.875)"/>
    <path id="Path_544" data-name="Path 544" d="M282.835,741.679a.734.734,0,0,1-.525-.018c-.371-.081-.5.072-.5.438a5.512,5.512,0,0,0,.292,1.549.773.773,0,0,1-.572-.589,3.85,3.85,0,0,1-.11-1.2.422.422,0,0,0-.365-.494,8.6,8.6,0,0,1-1.558-.438c-.283-.13-.534.093-.774.215-.316.161-.612.359-.921.535-.134.076-.313.179-.393-.021s.108-.255.259-.311a2.6,2.6,0,0,0,1.359-.9c.146-.213.47-.112.678-.26a13.368,13.368,0,0,0,1.6-1.182c.12-.114.221-.292.421-.22s.205.278.235.464a4.985,4.985,0,0,1-.03,1.477c-.062.44.083.642.5.7A.476.476,0,0,1,282.835,741.679Zm-1.307-1.431c-.052-.214.14-.557-.127-.689-.228-.114-.413.2-.628.3a.711.711,0,0,0-.2.116c-.195.186-.612.264-.573.526.043.286.444.324.718.408C281.59,741.174,281.506,741.184,281.529,740.248Z" transform="translate(-251.65 -670.216)"/>
    <path id="Path_545" data-name="Path 545" d="M616,721.73a12.162,12.162,0,0,1-.326,1.887c-.054.174-.086.388-.309.418a.572.572,0,0,1-.59-.278,6.893,6.893,0,0,1-.892-2.506.788.788,0,0,1,.615-.9c.308-.093.625-.159.935-.248.278-.08.363.11.422.305a13.4,13.4,0,0,0,.726,1.646.772.772,0,0,0,.464.483c.153.05.3.161.181.342s-.307.122-.431-.019A6.332,6.332,0,0,1,616,721.73Zm-.345-.117c-.023-.214-.044-.429-.07-.642-.045-.362-.289-.455-.6-.406a.793.793,0,0,0-.692,1.011,8.013,8.013,0,0,0,.592,1.751c.061.119.083.3.254.291s.205-.186.237-.313A9.856,9.856,0,0,0,615.656,721.613Z" transform="translate(-556.907 -653.261)"/>
    <path id="Path_546" data-name="Path 546" d="M734.349,584.956a12.405,12.405,0,0,1,.97,1.626c.081.186.18.364-.012.547a.508.508,0,0,1-.577.134,7.9,7.9,0,0,1-2.274-1.306.8.8,0,0,1-.178-1.082,9.936,9.936,0,0,1,.607-.868c.151-.2.336-.1.493,0a10.067,10.067,0,0,0,1.457.7.963.963,0,0,0,.883.116.2.2,0,0,1,.3.186c.02.2-.115.278-.3.256A11.459,11.459,0,0,1,734.349,584.956Zm-1.128-.529a.871.871,0,0,0-.576.557.65.65,0,0,0,.2.835,8.26,8.26,0,0,0,1.646,1.029c.131.064.279.2.422.067s.013-.293-.048-.425a8.94,8.94,0,0,0-.982-1.566,1.323,1.323,0,0,0-.66-.5Z" transform="translate(-664.205 -529.712)"/>
    <path id="Path_547" data-name="Path 547" d="M396.683,767.49a3.546,3.546,0,0,1,.278-1.232,2.413,2.413,0,0,1,1.173-1.223c.222-.093.384.061.528.2a.576.576,0,0,1,.12.645,1.4,1.4,0,0,1-1.179.986c-.351.047-.546.2-.581.536-.032.3-.157.64.16.856a.771.771,0,0,0,.913,0,3.339,3.339,0,0,1,.358-.213c.109-.056.216-.264.342-.1.093.121-.058.263-.148.357a1.5,1.5,0,0,1-1.058.5C396.987,768.817,396.638,768.408,396.683,767.49Z" transform="translate(-359.87 -694.018)"/>
    <path id="Path_548" data-name="Path 548" d="M358.153,750.318a16.053,16.053,0,0,1,1.521-1.6c.214-.159.429-.447.724-.287.315.172.278.529.241.835-.057.506-.128,1.011-.205,1.514a1.558,1.558,0,0,0,0,.642c.032.126.033.279-.122.3-.186.03-.226-.136-.23-.278a4.7,4.7,0,0,1,.025-.65c.058-.521.13-1.04.2-1.56.016-.12.072-.263-.067-.334s-.268.021-.378.107a7,7,0,0,0-1.421,1.754c-.142.214-.257.567-.538.472-.26-.086-.141-.443-.108-.672a6.286,6.286,0,0,1,.247-1.026,7.318,7.318,0,0,0,.287-2.563c0-.136-.086-.364.14-.371.178,0,.2.215.218.362a9.038,9.038,0,0,1-.324,2.516C358.308,749.763,358.223,750.039,358.153,750.318Z" transform="translate(-324.54 -677.32)"/>
    <path id="Path_549" data-name="Path 549" d="M427.9,767.158a8.231,8.231,0,0,1-1.233,1.461c-.16.135-.292.354-.549.223a.585.585,0,0,1-.311-.576,6.7,6.7,0,0,1,.636-2.628.738.738,0,0,1,.908-.385,8.205,8.205,0,0,1,1.006.327c.224.087.192.3.139.478a9.983,9.983,0,0,0-.232,1.553,1.083,1.083,0,0,0,.134.888c.109.136.138.3-.068.371s-.283-.072-.325-.233a4.255,4.255,0,0,1-.046-1.242C427.962,767.325,428.017,767.249,427.9,767.158Zm-1.786.883c.006.119-.042.258.084.338s.211-.012.287-.083a6.36,6.36,0,0,0,1.489-1.913.408.408,0,0,0-.021-.474.8.8,0,0,0-1.348.171A7.6,7.6,0,0,0,426.118,768.042Z" transform="translate(-386.298 -694.214)"/>
    <path id="Path_550" data-name="Path 550" d="M511.545,751.294c.31-.376.326-.862.557-1.258.157-.265.283-.549.45-.806.1-.161.229-.371.464-.321a.6.6,0,0,1,.431.45c.11.417.186.842.264,1.267a2.948,2.948,0,0,0,.3,1.106c.077.122.117.278-.051.358s-.251-.072-.3-.2a5.641,5.641,0,0,1-.256-1.078c-.055-.381-.132-.759-.206-1.138-.021-.106-.054-.225-.168-.26-.148-.045-.219.087-.292.18a4.537,4.537,0,0,0-.663,1.565c-.093.326-.186.65-.29.976-.036.114-.071.26-.225.259s-.176-.15-.218-.263a4.978,4.978,0,0,1-.231-1.6,6.55,6.55,0,0,0-.509-2.383c-.048-.116-.194-.278-.026-.364s.278.107.342.237a4.537,4.537,0,0,1,.36,1.335C511.383,749.995,511.506,750.631,511.545,751.294Z" transform="translate(-463.131 -678.375)"/>
    <path id="Path_551" data-name="Path 551" d="M752.531,478.451a3.4,3.4,0,0,1-1.206-.186,2.539,2.539,0,0,1-1.256-1.021c-.163-.348.07-.692.5-.749a1.229,1.229,0,0,1,1.29,1.031c.122.538.43.65.9.637a.63.63,0,0,0,.557-1.021c-.117-.2-.265-.38-.4-.57-.052-.074-.127-.154-.031-.241.069-.061.142-.013.212.019a1.483,1.483,0,0,1,.712,1.489C753.7,478.257,753.3,478.474,752.531,478.451Z" transform="translate(-680.419 -432.106)"/>
    <path id="Path_552" data-name="Path 552" d="M682.864,673.923c0-.29.022-.568.382-.645a.683.683,0,0,1,.774.377,1.358,1.358,0,0,1-.031,1.489.515.515,0,0,0,.045.7c.208.22.423.526.806.439a.7.7,0,0,0,.541-.625c.039-.227.062-.458.093-.686.008-.059.017-.14.093-.131a.229.229,0,0,1,.134.1,1.533,1.533,0,0,1-.26,1.468.88.88,0,0,1-1.184.059,4.345,4.345,0,0,1-1.164-1.353A2.339,2.339,0,0,1,682.864,673.923Z" transform="translate(-619.494 -610.786)"/>
    <path id="Path_553" data-name="Path 553" d="M717.166,622.746a9.426,9.426,0,0,0-.742-1.642,3.991,3.991,0,0,1-.211-.36c-.136-.267-.278-.59-.088-.831.215-.278.514-.024.757.07a10.59,10.59,0,0,0,1.257.464c.473.12.6.006.506-.479a4.521,4.521,0,0,0-.186-.57c-.027-.078-.029-.16.051-.2a.145.145,0,0,1,.191.081,3.338,3.338,0,0,1,.288.578.835.835,0,0,1-.1.876c-.239.249-.546.163-.826.059-.4-.149-.8-.32-1.206-.476-.093-.037-.208-.116-.3-.018s-.008.207.032.3a21.709,21.709,0,0,1,1.005,2.179c.044.142.186.286.034.423s-.291.054-.426-.03q-.988-.6-1.968-1.221c-.084-.053-.229-.1-.165-.237.073-.151.215-.079.327-.041a2.713,2.713,0,0,1,.65.354A5.221,5.221,0,0,0,717.166,622.746Z" transform="translate(-648.696 -561.727)"/>
    <path id="Path_554" data-name="Path 554" d="M484.28,759.575l.626-.173c.093-.025.191-.059.236.058s-.049.165-.124.22a1.113,1.113,0,0,1-1.814-.659,4.376,4.376,0,0,1-.115-.779c-.025-.337.021-.7-.471-.742a.2.2,0,0,1,.029-.4c.451-.02.371-.3.3-.583-.045-.179-.085-.361-.112-.544-.017-.111.01-.229.143-.253s.186.079.228.186a2.479,2.479,0,0,1,.078.734c.022.278.129.424.444.371.349-.062.7-.093,1.058-.126.088-.008.211-.019.236.093.036.158-.112.163-.21.179a4.863,4.863,0,0,0-1.114.315c-.071.03-.175.043-.206.093a1.813,1.813,0,0,0,.026,1.426A.779.779,0,0,0,484.28,759.575Z" transform="translate(-437.698 -685.596)"/>
    <path id="Path_555" data-name="Path 555" d="M734.863,554.987c-.025.4-.049.733-.068,1.072-.008.158-.007.331.177.386a3.426,3.426,0,0,0,1.4.259c.469-.062.6-.407.635-.835.014-.186-.08-.519.152-.507.272.014.217.354.2.572A1.056,1.056,0,0,1,736.041,557a5.1,5.1,0,0,1-.816-.165c-.292-.083-.543-.107-.705.219a.2.2,0,0,1-.274.108.173.173,0,0,1-.093-.231c.118-.39-.132-.448-.419-.475-.186-.017-.371-.021-.55-.043-.143-.016-.3-.057-.278-.241.018-.154.168-.181.289-.161.258.042.513.1.767.168s.409.007.444-.287a6.614,6.614,0,0,1,.159-.863c.037-.147,0-.416.218-.386C734.955,554.663,734.844,554.9,734.863,554.987Z" transform="translate(-664.895 -503.17)"/>
    <path id="Path_556" data-name="Path 556" d="M654.459,693.584a1.077,1.077,0,0,0,.893-.521c.082-.093.147-.31.3-.2s.029.284-.049.411a1.072,1.072,0,0,1-1.754.321,3.851,3.851,0,0,1-.511-.531c-.225-.26-.394-.619-.847-.371a.209.209,0,0,1-.278-.109.151.151,0,0,1,.065-.2c.362-.255.161-.464-.057-.662-.136-.124-.278-.238-.423-.356-.1-.084-.2-.186-.107-.313.108-.148.263-.093.363.009a6.914,6.914,0,0,1,.508.6c.163.205.278.291.5.041a10.075,10.075,0,0,1,.883-.815c.068-.06.162-.122.237-.019.053.072-.007.145-.058.205l-.821,1c-.093.107-.216.22-.108.363a3.323,3.323,0,0,0,1.146,1.114A.29.29,0,0,0,654.459,693.584Z" transform="translate(-591.185 -626.711)"/>
    <path id="Path_557" data-name="Path 557" d="M748.36,497.129c.067-.093.132-.1.186-.076a13.551,13.551,0,0,1,3.292,1.752c.334.3.332.452-.07.683a3.277,3.277,0,0,1-.78.278,4.513,4.513,0,0,0-1.606.686c-.122.093-.284.205-.4.032s.049-.278.169-.371a4.045,4.045,0,0,1,1.291-.486c.263-.086.535-.149.794-.246.383-.142.4-.267.077-.533a12.664,12.664,0,0,0-2.413-1.36C748.7,497.386,748.47,497.333,748.36,497.129Z" transform="translate(-678.916 -450.919)"/>
    <path id="Path_558" data-name="Path 558" d="M636.613,703.1c-.056.177-.12.449-.225.7-.223.538-.605.613-.977.155a13.71,13.71,0,0,1-1.064-1.511c-.3-.488-.633-.946-.971-1.4-.11-.15-.389-.362-.135-.537.212-.147.328.152.431.307.443.668.869,1.347,1.31,2.016.177.269.371.526.571.783.22.287.4.241.534-.079.085-.2.177-.393.269-.588.044-.093.063-.238.212-.186C636.674,702.8,636.636,702.916,636.613,703.1Z" transform="translate(-574.385 -635.467)"/>
    <path id="Path_559" data-name="Path 559" d="M465.429,755.324c0,.587-.022,1.174.007,1.759.023.443.186.5.557.271.186-.114.361-.235.54-.355.077-.051.163-.132.245-.05.112.113-.006.2-.079.267a5.87,5.87,0,0,1-.637.533c-.588.389-.909.214-.937-.509a14.613,14.613,0,0,1-.027-1.71,10.793,10.793,0,0,0-.055-1.849c-.014-.153-.062-.4.164-.416s.2.232.2.393c.007.557,0,1.114,0,1.67Z" transform="translate(-421.878 -683.367)"/>
    <path id="Path_560" data-name="Path 560" d="M698.441,651.636c-.267-2.13-.267-2.13.093-2.4.093.074.044.167.027.252a2.83,2.83,0,0,0,1.114,2.98c.093.07.177.142.109.265-.082.151-.213.114-.317.04-.377-.268-.737-.557-1.121-.818-.345-.232-.715-.428-1.07-.645-.13-.08-.313-.174-.2-.351.093-.146.252-.039.371.036C697.763,651.2,698.071,651.4,698.441,651.636Z" transform="translate(-632.36 -588.995)"/>
    <path id="Path_561" data-name="Path 561" d="M752.7,537.419c-.57-.106-1.31-.243-2.051-.382-.134-.025-.244-.087-.2-.246s.175-.158.3-.129c.509.117,1.021.242,1.527.36a3.66,3.66,0,0,0,.5.093c.318.028.443-.1.29-.41-.131-.262-.269-.52-.4-.779-.043-.082-.1-.172,0-.24.075-.048.15.011.205.064a2.32,2.32,0,0,1,.7,1.272C753.631,537.343,753.386,537.474,752.7,537.419Z" transform="translate(-680.804 -485.963)"/>
  </g>
</svg>
