<svg xmlns="http://www.w3.org/2000/svg" width="159.917" height="29.689" viewBox="0 0 159.917 29.689">
  <defs>
    <style>
      .cls-1 {
        fill: #fff;
      }
    </style>
  </defs>
  <path id="behance-4" class="cls-1" d="M13.743,0A14.417,14.417,0,0,1,17.52.42a8.2,8.2,0,0,1,2.937,1.154,4.851,4.851,0,0,1,1.888,2.2,8.33,8.33,0,0,1,.629,3.357,5.86,5.86,0,0,1-1.049,3.672,7.6,7.6,0,0,1-2.937,2.412,7.015,7.015,0,0,1,3.986,2.728,8.265,8.265,0,0,1,1.364,4.616,8.363,8.363,0,0,1-.839,3.777,6.98,6.98,0,0,1-2.308,2.623,10.815,10.815,0,0,1-3.357,1.469,15.655,15.655,0,0,1-3.777.525H0V0ZM12.9,11.75a4.774,4.774,0,0,0,2.833-.839,3.059,3.059,0,0,0,1.049-2.623,4,4,0,0,0-.315-1.679,2.976,2.976,0,0,0-.944-1.049,5.27,5.27,0,0,0-1.364-.525,8.48,8.48,0,0,0-1.679-.1H6.4V11.75h6.5Zm.315,12.379A9.325,9.325,0,0,0,15,23.92a3.7,3.7,0,0,0,1.469-.63,3.741,3.741,0,0,0,1.049-1.154,5.016,5.016,0,0,0,.42-1.888,4.046,4.046,0,0,0-1.259-3.253,5.533,5.533,0,0,0-3.357-.943H6.4v8.078Zm20.247-.1a5.129,5.129,0,0,0,3.777,1.259,5.736,5.736,0,0,0,3.042-.839,4.2,4.2,0,0,0,1.574-1.889H47a10.228,10.228,0,0,1-3.777,5.455,11.205,11.205,0,0,1-6.085,1.68,12.335,12.335,0,0,1-4.511-.84,8.38,8.38,0,0,1-3.357-2.307,8.321,8.321,0,0,1-2.1-3.463,12.339,12.339,0,0,1-.734-4.511,12.154,12.154,0,0,1,.734-4.406,11.307,11.307,0,0,1,2.2-3.566,10.654,10.654,0,0,1,3.357-2.308,11.773,11.773,0,0,1,4.406-.839A9.787,9.787,0,0,1,41.858,8.5,8.516,8.516,0,0,1,45.11,11.33,12.7,12.7,0,0,1,47,15.317a22.01,22.01,0,0,1,.21,4.616H32a6.027,6.027,0,0,0,1.469,4.091Zm6.609-11.015a4.544,4.544,0,0,0-3.252-1.154,4.988,4.988,0,0,0-2.308.525,5.493,5.493,0,0,0-1.469,1.154A2.8,2.8,0,0,0,32.312,15a7.207,7.207,0,0,0-.21,1.364h9.442A5.564,5.564,0,0,0,40.075,13.009ZM55.391,0V10.91h.1a6.175,6.175,0,0,1,2.833-2.623,7.933,7.933,0,0,1,3.357-.839,9.433,9.433,0,0,1,3.777.629,5.7,5.7,0,0,1,2.308,1.783,7.153,7.153,0,0,1,1.154,2.728,18.041,18.041,0,0,1,.315,3.567v12.9h-5.77V17.2a7.347,7.347,0,0,0-.839-3.882A3.072,3.072,0,0,0,59.8,12.064a4.027,4.027,0,0,0-3.357,1.365c-.734.943-1.049,2.517-1.049,4.615V29.06h-5.77V0ZM73.436,11.12a7.726,7.726,0,0,1,2.308-2.2,10.278,10.278,0,0,1,3.147-1.154,19.307,19.307,0,0,1,3.462-.315c1.049,0,2.1.1,3.253.21a8.66,8.66,0,0,1,2.936.839,6.134,6.134,0,0,1,2.2,1.783,5.244,5.244,0,0,1,.838,3.043V24.339a22.186,22.186,0,0,0,.21,2.729,4.4,4.4,0,0,0,.734,1.992H86.654a2.56,2.56,0,0,1-.42-.943,3.573,3.573,0,0,1-.1-1.049,8.041,8.041,0,0,1-3.252,1.992,11.736,11.736,0,0,1-3.777.525,8.451,8.451,0,0,1-2.833-.419A6.821,6.821,0,0,1,73.96,28.01a6.044,6.044,0,0,1-1.574-1.992,7.589,7.589,0,0,1-.525-2.834,6.088,6.088,0,0,1,.629-2.937,6.871,6.871,0,0,1,1.574-1.888,7.782,7.782,0,0,1,2.308-1.049A19.657,19.657,0,0,1,79,16.785l2.518-.315q1.259-.157,2.2-.315a5.482,5.482,0,0,0,1.574-.734,1.5,1.5,0,0,0,.525-1.364,2.778,2.778,0,0,0-.315-1.469,3.193,3.193,0,0,0-.839-.839,3.74,3.74,0,0,0-1.154-.419,6.389,6.389,0,0,0-1.469-.106,3.91,3.91,0,0,0-2.623.734,3.525,3.525,0,0,0-1.154,2.413h-5.77a6.255,6.255,0,0,1,.944-3.252ZM84.87,19.3c-.314.1-.733.21-1.154.315s-.839.106-1.364.21c-.419.1-.943.1-1.364.21l-1.259.315a2.46,2.46,0,0,0-1.049.525,2.828,2.828,0,0,0-.734.839,2.044,2.044,0,0,0-.314,1.364,2.237,2.237,0,0,0,.315,1.259,2.815,2.815,0,0,0,.734.839,3.731,3.731,0,0,0,1.154.42,5.585,5.585,0,0,0,1.363.1,5.764,5.764,0,0,0,2.623-.525,4.215,4.215,0,0,0,1.365-1.364,3.122,3.122,0,0,0,.525-1.574,6.016,6.016,0,0,0,.1-1.259v-2.2a4.194,4.194,0,0,1-.945.525Zm15.424-11.33V10.91h.1a6.173,6.173,0,0,1,2.831-2.623,8.864,8.864,0,0,1,3.567-.839,9.433,9.433,0,0,1,3.777.629,5.072,5.072,0,0,1,2.309,1.783,9.368,9.368,0,0,1,1.258,2.728,18.038,18.038,0,0,1,.316,3.567v12.9h-5.77V17.2a7.346,7.346,0,0,0-.84-3.882,3.2,3.2,0,0,0-2.937-1.364,4.2,4.2,0,0,0-3.462,1.574c-.734.944-1.049,2.518-1.049,4.616V29.164h-5.77V7.973Zm27.064,3.777a3.979,3.979,0,0,0-2.307.63,4.838,4.838,0,0,0-1.574,1.679,6.909,6.909,0,0,0-.84,2.2,9.447,9.447,0,0,0-.209,2.414,17.31,17.31,0,0,0,.209,2.307,6.275,6.275,0,0,0,.84,2.1,5.239,5.239,0,0,0,1.469,1.574,3.986,3.986,0,0,0,2.307.63A4.718,4.718,0,0,0,130.5,24.13a4.861,4.861,0,0,0,1.365-3.147h5.56a9.669,9.669,0,0,1-3.253,6.4,10.538,10.538,0,0,1-6.924,2.2,11.225,11.225,0,0,1-4.3-.839,9.335,9.335,0,0,1-3.357-2.2,10.384,10.384,0,0,1-2.2-3.357,11.594,11.594,0,0,1-.733-4.3,12.342,12.342,0,0,1,.733-4.511,11.57,11.57,0,0,1,2.1-3.672,10.954,10.954,0,0,1,3.358-2.413,12.325,12.325,0,0,1,4.51-.839,13.311,13.311,0,0,1,3.567.525,9.15,9.15,0,0,1,3.042,1.468,6.418,6.418,0,0,1,2.2,2.518,8.892,8.892,0,0,1,.944,3.567h-5.665q-.31-3.777-4.09-3.777ZM30.843,1.993h11.75V4.826H30.843ZM146.137,24.024a5.3,5.3,0,0,0,3.777,1.259,5.73,5.73,0,0,0,3.042-.839,4.184,4.184,0,0,0,1.574-1.889h5.037a10.229,10.229,0,0,1-3.778,5.455,11.208,11.208,0,0,1-6.085,1.68,12.345,12.345,0,0,1-4.512-.84,8.383,8.383,0,0,1-3.356-2.307,8.321,8.321,0,0,1-2.1-3.463A12.339,12.339,0,0,1,139,18.568a12.154,12.154,0,0,1,.734-4.406,11.288,11.288,0,0,1,2.2-3.566A10.654,10.654,0,0,1,145.3,8.288a12.193,12.193,0,0,1,4.406-.839A9.108,9.108,0,0,1,154.32,8.5a8.531,8.531,0,0,1,3.252,2.833,12.7,12.7,0,0,1,1.888,3.987,13.927,13.927,0,0,1,.419,4.721H144.667a5.946,5.946,0,0,0,1.47,3.987Zm6.714-11.015a4.546,4.546,0,0,0-3.252-1.154,4.993,4.993,0,0,0-2.309.525,4.2,4.2,0,0,0-1.468,1.154A3.883,3.883,0,0,0,145.088,15a7.283,7.283,0,0,0-.209,1.364h9.442A7.172,7.172,0,0,0,152.851,13.009Z"/>
</svg>
