<svg id="instagram-1" xmlns="http://www.w3.org/2000/svg" width="155.689" height="52.336" viewBox="0 0 155.689 52.336">
  <defs>
    <style>
      .cls-1 {
        fill: #fff;
      }
    </style>
  </defs>
  <path id="Path_603" data-name="Path 603" class="cls-1" d="M14.59.686c-1.035.4-2.74,2.527-3.745,4.628a19.055,19.055,0,0,0-1.979,8.5,8.5,8.5,0,0,0,.822,4.415,12.851,12.851,0,0,0,1.644,2.68,7.046,7.046,0,0,0,4.263,2.01c.822,0,.974.122.974.761a9.515,9.515,0,0,1-.579,2.284A7.858,7.858,0,0,1,8.379,31.44c-2.527,0-4.354-.822-5.024-2.253-.822-1.736-.639-2.8.761-4.507a4.923,4.923,0,0,0,1.431-2.832c.122-1.218.061-1.4-.579-1.614-1.736-.639-3.9.974-4.567,3.349a11.006,11.006,0,0,0-.183,3.075c.457,4.994,4.2,7.551,10.414,7.125,3.41-.244,5.176-.913,7.034-2.8,1.949-1.918,2.771-4.08,3.167-8.039.335-3.349.4-16.169.122-19.609C20.741,1.021,20.741.99,19.8.868A16.5,16.5,0,0,0,14.59.686Zm1.888,4.324c.183.244.244,3.228.152,7.46-.122,6.577-.183,7.095-.7,7.247-1,.335-2.223-.518-3.014-2.131-.7-1.37-.761-1.888-.761-5.176,0-3.958.335-5.39,1.583-6.851C14.529,4.583,15.93,4.309,16.478,5.009Zm36.813-3.5a8.861,8.861,0,0,0-.183,2.01c0,.883-.091,2.5-.213,3.623l-.183,2.071h-1.4a11.09,11.09,0,0,0-3.9.7,1.084,1.084,0,0,0,.183.761c.3.548.944.792,4.232,1.462l.67.122L52.439,19.5c-.091,6.333-.03,7.46.487,9.1.974,3.228,3.2,5.176,5.45,4.75C59.5,33.145,61,31.531,62,29.46c.457-1,.853-1.553.853-1.218a8.582,8.582,0,0,0,2.192,4.232,8.323,8.323,0,0,0,2.345.792c2.619.487,4.141-.609,5.694-4.141l.487-1.188.274.883a5.227,5.227,0,0,0,3.075,3.045,3.925,3.925,0,0,0,3.593-1.583l.7-.944.639,1.279c.853,1.644,1.766,2.284,3.958,2.68,1.614.274,1.888.274,2.588-.274a7.749,7.749,0,0,0,1.614-2.071l.853-1.492v3.623l-2.253,2.223a19.558,19.558,0,0,0-5.207,9.074c-1.492,5.877.4,8.465,6.212,8.5,2.5.03,2.527.03,3.38-.974,1.431-1.705,1.644-2.984,1.827-10.718l.152-7.156h.974a2.292,2.292,0,0,0,1.37-.4c.335-.335.274-.518-.335-1a2.946,2.946,0,0,0-1.492-.579h-.761l.152-4.963c.122-3.806.274-5.176.67-5.938l.518-1-1-.4-1-.426V16.58c0-2.619-.061-2.8-.853-3.654a5.721,5.721,0,0,0-2.131-1.248,19.953,19.953,0,0,1-2.71-1c-1.675-.761-2.558-.609-4.019.67-2.071,1.827-3.106,5.42-3.5,12.028-.244,4.232-.7,5.724-1.857,6.09-.853.274-1.431-.274-1.827-1.644a17.418,17.418,0,0,1,.061-6.638c.335-1.34.3-1.431-.426-2.04-.7-.579-.792-.913-.913-3.167-.183-3.2-.639-3.837-3.471-4.994-5.664-2.314-8.5.244-9.561,8.709a10.31,10.31,0,0,1-.579,2.74,9.96,9.96,0,0,0-.761,2.406c-.609,2.558-1.462,4.324-2.5,4.963-.731.487-.792.487-1.37-.091-.913-.913-1.188-3.776-1-10.14.213-7.978.091-7.521,2.131-7.8.944-.091,2.588-.213,3.654-.213,2.1-.03,2.406-.3,1.34-1.279-.487-.426-1.309-.609-3.593-.731l-2.954-.183.061-2.131c.03-1.188.152-2.8.244-3.593.183-1.431.152-1.462-.822-1.857C55,1.112,53.474.96,53.291,1.508Zm36.57,12.7c.792.7.853.883.822,2.984-.061,4.111-.853,8.739-1.857,10.749-.7,1.4-1.949,2.588-2.74,2.588a1.653,1.653,0,0,1-1.218-.822c-.822-1.218-.792-9.257.03-11.662.792-2.375,1.644-3.654,2.74-4.141C88.887,13.353,88.887,13.353,89.861,14.205Zm-17.63.639c.822,1.066,1.127,3.289.548,4.172a15.694,15.694,0,0,0-.761,3.958c-.457,4.08-1.066,6.212-2.162,7.308-1.279,1.248-2.345,1.157-2.954-.3-1.188-2.771-.7-10.779.853-13.794,1.1-2.162,3.319-2.832,4.476-1.34ZM90.562,45.538C90.013,49.07,88.7,50.9,87.029,50.5c-1.583-.4-2.071-3.258-1.188-6.729a21.932,21.932,0,0,1,3.684-7.46l1.188-1.34.091,4.232A50.542,50.542,0,0,1,90.562,45.538Z" transform="translate(-0.182 -0.548)"/>
  <path id="Path_604" data-name="Path 604" class="cls-1" d="M167.76,33.34c-1.553,1.614-2.466,4.05-2.923,7.947-.426,3.654-1.644,8.465-2.5,10.018-.518.944-.853,1.248-1.431,1.248-1.218,0-1.614-1.675-1.431-6.242a22.459,22.459,0,0,1,.853-6.059l.7-2.253-.67-.548a6.126,6.126,0,0,0-2.74-.731c-1.127-.091-2.253-.213-2.5-.244-.3-.061-.457-.457-.457-1.279-.03-1.736-.335-2.071-1.583-1.888-1.857.3-1.857.365-1.705,5.481a37.718,37.718,0,0,1-.213,6.912c-.548,3.228-.518,3.471.091,3.593.822.183,1.614-2.01,2.253-6.333l.579-3.806h1.8l-.122,3.958c-.183,7.765,1.431,11.723,4.781,11.723,1.4,0,2.619-.944,3.5-2.74l.761-1.492.487,1.309a6.753,6.753,0,0,0,1.34,2.071c1,.944,3.837,1.644,4.994,1.188,1-.365,2.314-1.979,3.136-3.776L175.4,49.9l.579,1.279c1.462,3.258,4.811,3.5,6.79.518l.822-1.248.183,1.583c.274,2.01.609,2.406,2.284,2.68,2.649.4,2.649.365,3.258-4.2.518-4.111,1.309-7.551,1.766-7.551a23.534,23.534,0,0,1,.335,4.537c.091,3.928.183,4.628.67,5.176,1.188,1.309,4.141,1.1,4.141-.3a39.776,39.776,0,0,1,2.223-8.039l.974-2.436.152,4.263c.122,3.776.244,4.446.913,5.755a7.03,7.03,0,0,0,1.583,2.131,4.206,4.206,0,0,0,4.385,0c2.345-1.736,4.781-9.257,3.015-9.257-.548,0-.914.731-1.218,2.284-.7,3.9-3.045,6.12-4.111,3.867-.639-1.309-.731-6.547-.152-9.043.914-3.958.944-3.654-.274-4.567a4.936,4.936,0,0,0-2.588-1L199.7,36.2l-.792,1.766c-.457,1-1.462,3.654-2.284,5.907l-1.462,4.111-.091-4.628-.091-4.659-.883-.457c-2.436-1.248-3.715-.122-5.146,4.6-.548,1.827-1.035,3.441-1.1,3.623-.061.152-.122-2.314-.122-5.542-.03-3.623-.152-5.907-.335-6.029a7.726,7.726,0,0,0-1.949-.365l-1.644-.183-.122,5.755c-.122,4.841-.244,6.059-.792,7.765-1.188,3.563-2.71,4.659-3.593,2.558-.518-1.248-.579-5.846-.091-7.612.3-1.1.274-1.248-.426-1.827-.639-.518-.761-.974-.944-3.014-.244-2.71-.7-3.867-1.766-4.324-3.2-1.492-3.745-1.644-5.329-1.644-1.644,0-1.8.061-2.984,1.34Zm5.938,2.923c1,.548,1.675,3.989.913,4.75A13.53,13.53,0,0,0,174,44.484c-.426,4.141-1.1,6.486-2.162,7.643-1.127,1.188-2.375,1.127-2.984-.152-1.035-2.192-.974-8.374.122-12.18C169.891,36.72,171.809,35.258,173.7,36.263ZM78.878,34.375c-.244.426-.883,14.859-.731,16.564.213,2.01.883,2.68,2.649,2.68a4.847,4.847,0,0,0,1.736-.244,7.988,7.988,0,0,0,.853-2.8,30.622,30.622,0,0,1,2.162-7c.4-.7.426-.426.457,2.893,0,4.05.426,5.45,1.827,6.181a4.408,4.408,0,0,0,4.019-.548c.913-.67.913-.67,1.34-.061.974,1.4,5.176,2.223,8.13,1.583,2.223-.457,3.563-1.522,3.563-2.862,0-1.309-.457-1.888-3.623-4.446s-3.684-3.228-3.684-4.72a2.676,2.676,0,0,1,4.293-2.1c.731.67,1.37.518,2.253-.518a2.582,2.582,0,0,0,.7-2.223c-.091-1.035-.244-1.309-1-1.675-1.705-.822-7.277.67-9.257,2.5a4.667,4.667,0,0,0-.944,5.664c.457.944.518,1.218.183,1.34a2.527,2.527,0,0,0-.609,1.462c-.487,3.075-2.1,5.176-3.2,4.111-.4-.426-.487-1.34-.548-5.481-.03-3.806-.152-5.207-.518-5.907a1.98,1.98,0,0,0-2.619-.974c-.761.4-1.979,2.5-3.075,5.268l-.853,2.192-.03-4.933c0-4.781-.03-4.963-.67-5.39C80.735,34.345,79.091,34.04,78.878,34.375ZM99.249,48.839a5.652,5.652,0,0,1,1.462,1.736c.457,1.705-2.04,2.192-3.989.761-.639-.457-1.492-1.066-1.979-1.34-.518-.3-.761-.639-.639-.944a20.957,20.957,0,0,0,.518-2.162l.335-1.736,1.522,1.279C97.3,47.1,98.548,48.2,99.249,48.839Z" transform="translate(-54.391 -22.423)"/>
</svg>
