<svg id="LinkedIN_Handle" xmlns="http://www.w3.org/2000/svg" width="152.141" height="40.298" viewBox="0 0 152.141 40.298">
  <defs>
    <style>
      .cls-1 {
        fill: #fff;
      }
    </style>
  </defs>
  <g id="Group_138" data-name="Group 138" transform="translate(0 6.787)">
    <path id="Path_606" data-name="Path 606" class="cls-1" d="M1.785,41.594H18.5V36.106H7.834V15.175H1.785Zm25.173,0V23.4H20.909v18.2ZM23.934,20.913a3.154,3.154,0,1,0,.04-6.288,3.153,3.153,0,1,0-.08,6.288h.04Zm5.832,20.681h6.048V31.431a4.126,4.126,0,0,1,.2-1.475,3.31,3.31,0,0,1,3.1-2.212c2.189,0,3.065,1.669,3.065,4.114v9.735h6.047V31.16c0-5.59-2.984-8.19-6.964-8.19a6.025,6.025,0,0,0-5.491,3.066h.041V23.4H29.766C29.845,25.1,29.766,41.594,29.766,41.594Zm27-26.419H50.713V41.594h6.048v-5.9l1.512-1.9,4.735,7.8h7.44L62.491,30.3l6.963-7.685H62.173S57.2,29.488,56.761,30.3Z" transform="translate(-1.785 -14.625)"/>
    <path id="Path_607" data-name="Path 607" class="cls-1" d="M145.977,34.493a14.747,14.747,0,0,0,.2-2.377c0-4.7-2.388-9.479-8.675-9.479-6.725,0-9.829,5.318-9.829,10.142,0,5.966,3.78,9.691,10.385,9.691a18.8,18.8,0,0,0,7.044-1.2l-.8-3.995a16.462,16.462,0,0,1-5.372.812c-2.825,0-5.291-1.16-5.491-3.631l12.534.038ZM133.4,30.4c.159-1.553,1.194-3.844,3.78-3.844,2.745,0,3.382,2.446,3.382,3.844H133.4Zm27.7-14.737V24.81h-.08c-.876-1.28-2.706-2.134-5.132-2.134-4.656,0-8.754,3.726-8.715,10.091,0,5.9,3.7,9.743,8.316,9.743a6.841,6.841,0,0,0,6.088-3.184h.119l.239,2.757h5.371c-.079-1.281-.16-3.493-.16-5.667V15.664H161.1Zm0,18a6.716,6.716,0,0,1-.12,1.319,3.559,3.559,0,0,1-3.541,2.833c-2.506,0-4.138-2.018-4.138-5.2,0-2.988,1.394-5.4,4.178-5.4a3.575,3.575,0,0,1,3.541,2.871,5.037,5.037,0,0,1,.079,1.088V33.66Z" transform="translate(-61.139 -15.115)"/>
  </g>
  <path id="Path_605" data-name="Path 605" class="cls-1" d="M213.882,4.67a2.925,2.925,0,0,1,2.96-2.887h34.125a2.924,2.924,0,0,1,2.96,2.887V39.195a2.924,2.924,0,0,1-2.96,2.886H216.842a2.924,2.924,0,0,1-2.96-2.886V4.669Z" transform="translate(-101.786 -1.783)"/>
  <path id="Path_608" data-name="Path 608" d="M231.136,41.552v-18.2h-6.048v18.2h6.049Zm-3.023-20.681a3.37,3.37,0,1,0-.04,0h.039Zm6.371,20.681h6.048V31.391a4.145,4.145,0,0,1,.2-1.476,3.31,3.31,0,0,1,3.1-2.212c2.188,0,3.064,1.669,3.064,4.115v9.734h6.048V31.118c0-5.589-2.983-8.19-6.963-8.19a6.025,6.025,0,0,0-5.491,3.065h.04V23.355h-6.048c.079,1.707,0,18.2,0,18.2Z" transform="translate(-106.901 -7.818)"/>
</svg>
